<?xml version="1.0" encoding="utf-8" ?>
<svg xmlns="http://www.w3.org/2000/svg" xmlns:xlink="http://www.w3.org/1999/xlink" width="3524" height="3524">
	<path fill="#BA999A" fill-opacity="0.35686275" transform="scale(3.44095 3.44095)" d="M496.811 441.174L497.277 441.787C498.262 440.243 498.604 439.15 500.312 438.413C501.744 438.925 503.126 440.424 503.853 441.794C504.385 442.796 504.254 444.539 504.285 445.663C503.921 447.351 503.428 448.805 502.717 450.378L502.217 449.872L502.354 449.196C501.296 447.679 500.192 445.712 498.308 445.346C497.83 446.143 497.333 446.884 496.773 447.627L495.767 447.519C496.008 445.361 496.255 443.281 496.811 441.174Z"/>
	<path fill="#BA999A" transform="scale(3.44095 3.44095)" d="M494.85 618.084C497.141 624.916 502.775 628.855 507.064 634.417C512.183 634.879 520.496 635.993 525.223 634.904C524.668 635.328 524.12 635.77 523.482 636.067C518.893 638.199 511.393 637.521 506.99 635.527C500.557 632.613 496.531 626.682 494.265 620.23C484.522 621.696 473.448 620.803 463.561 620.872L397.514 620.978L280.627 620.865C256.518 620.86 232.323 621.292 208.231 620.506C213.44 619.746 218.976 620.015 224.251 619.918L255.817 619.616L337.359 619.27C347.435 619.31 368.776 620.413 377.783 618.514C388.147 617.683 399.096 618.352 409.517 618.338L473.75 618.275C478.16 618.272 491.479 619.194 494.85 618.084Z"/>
	<path transform="scale(3.44095 3.44095)" d="M94.9618 447.122Q91.3595 446.236 87.7763 445.276C75.07 441.83 62.7037 436.335 55.9461 424.377C50.2882 414.365 50.825 404.506 53.7825 393.777L54.1225 393.988C54.7861 401.332 59.0972 409.823 64.4468 414.931C75.7394 425.712 98.4251 428.216 113.22 428.504C119.778 428.632 126.28 427.907 132.817 427.543C140.043 427.141 147.315 427.103 154.551 426.951C158.509 425.748 164.357 426.412 168.53 426.385L171.828 425.908C173.189 425.099 174.7 424.546 176.158 423.934L236.423 423.947C247.248 423.962 258.283 423.494 269.076 424.153C273.707 427.515 277.85 431.869 281.911 435.895C283.291 432.004 285.021 428.174 286.185 424.222C300.592 423.624 318.375 423.211 332.672 424.318C326.909 439.241 322.271 454.707 317.314 469.916Q307.676 499.727 297.429 529.334L319.041 529.649Q337.372 477.004 355.052 424.137C365.186 424.123 430.153 423.347 434.937 424.933C438.049 428.063 440.901 425.807 443.234 427.095C443.348 427.158 443.85 428.65 443.931 428.892C444.884 427.261 445.809 425.606 446.802 424C464.302 423.986 481.842 423.759 499.336 424.139C498.566 429.823 497.895 435.54 496.811 441.174C496.255 443.281 496.008 445.361 495.767 447.519L496.773 447.627C497.333 446.884 497.83 446.143 498.308 445.346C500.192 445.712 501.296 447.679 502.354 449.196L502.217 449.872L502.717 450.378C503.428 448.805 503.921 447.351 504.285 445.663C505.021 443.279 505.625 440.694 506.683 438.438C513.846 434.306 523.958 427.621 531.539 425.006C537.74 422.868 571.647 424.249 580.581 424.35C582.859 426.659 585.907 430.834 589.361 430.89C590.322 430.905 591.291 430.798 592.245 430.697L592.968 431.366C594.286 429.55 594.587 426.611 595.343 424.458C626.491 423.737 657.73 423.997 688.89 424.029C705.832 424.047 723.271 423.141 740.152 424.171C743.551 426.764 748.096 431.657 752.43 432.02C754.277 431.513 755.193 430.796 756.113 429.092C756.86 427.708 757.221 425.824 757.648 424.295C766.43 423.634 775.445 424.03 784.257 424.028L831.458 424.013Q848.757 423.975 866.055 424.151C869.968 424.194 875.117 423.663 878.899 424.545C878.377 425.328 877.846 426.088 877.275 426.837C881.626 427.922 886.756 427.532 891.244 427.778C910.383 428.829 934.573 429.613 951.708 419.469C960.633 414.186 965.471 405.484 968.005 395.67C968.123 395.211 968.224 394.747 968.327 394.284C970.753 405.527 971.711 416.099 965.258 426.26C957.908 437.835 944.774 442.088 932.288 445.651C930.108 446.273 928.472 445.918 929.025 448.451C929.951 452.69 933.589 456.084 935.393 459.948C937.262 460.936 938.519 462.163 940.004 463.654Q942.598 465.62 945.246 467.514C963.518 481.383 974.456 494.712 977.78 518.16C978.57 523.732 978.753 529.372 978.021 534.961C978.652 536.074 979.323 537.164 979.831 538.34L980.678 540.523C987.949 558.064 994.09 577.028 986.543 595.618C982.128 606.492 972.795 613.875 962.122 618.219C943.624 625.745 922.357 621.397 903.523 617.388C895.873 615.759 888.135 614.096 880.645 611.828C869.285 616.672 857.452 619.156 845.112 617.683C842.594 617.383 835.008 615.741 833.373 617.393C833.785 617.911 834.088 618.346 834.414 618.93C826.609 622.739 791.11 621.725 780.923 621.444Q696.588 622.339 612.249 621.699Q588.893 621.546 565.536 621.656C556.132 621.71 546.473 622.283 537.096 621.586C535.602 623.757 534.058 625.674 532.119 627.466C530.112 630.203 527.624 632.52 525.223 634.904C520.496 635.993 512.183 634.879 507.064 634.417C502.775 628.855 497.141 624.916 494.85 618.084C491.479 619.194 478.16 618.272 473.75 618.275L409.517 618.338C399.096 618.352 388.147 617.683 377.783 618.514C368.776 620.413 347.435 619.31 337.359 619.27L255.817 619.616L224.251 619.918C218.976 620.015 213.44 619.746 208.231 620.506C202.634 621.212 196.264 620.603 190.583 620.584C180.887 620.553 170.11 621.451 160.567 619.967L155.903 616.48C150.724 615.318 145.409 614.097 140.581 611.84C116.021 618.927 82.7659 627.73 58.3697 617.219C47.9009 612.709 39.7658 605.334 35.5574 594.606C28.2306 575.928 34.1881 555.955 41.7467 538.447C43.5007 534.723 43.1323 530.513 43.2139 526.48Q43.3617 523.44 43.7289 520.419C46.7284 496.709 58.5961 481.399 76.9205 467.183L80.0921 466.069C81.6738 465.562 83.1273 464.723 84.6036 463.965C87.454 457.922 90.9349 452.442 94.9618 447.122ZM373.671 507.675C370.683 514.616 368.903 522.12 365.842 528.975C374.297 529.848 382.822 529.225 391.281 530.031Q394.306 524.314 397.246 518.554L396.642 517.422C396.752 516.125 396.831 514.922 396.405 513.655C395.631 511.354 393.605 510.353 391.513 509.548L390.93 509.329L391.32 509.287C390.447 508.281 389.202 508.255 387.958 508.035C383.218 507.974 378.392 508.097 373.671 507.675ZM564.801 618.518C571.306 619.938 578.457 619.357 585.095 619.344L615.469 619.168L668.727 619.277C683.624 619.254 698.564 618.924 713.453 619.084C719.557 619.15 725.644 619.704 731.747 619.76C749.78 619.924 769.415 618.187 787.254 620.737C785.184 620.92 782.938 620.946 780.923 621.444C791.11 621.725 826.609 622.739 834.414 618.93C834.088 618.346 833.785 617.911 833.373 617.393C832.008 617.995 830.926 618.193 829.434 618.285C820.59 618.83 811.515 618.422 802.64 618.425L751.328 618.409L636.251 618.404Q600.526 618.282 564.801 618.518ZM390.63 460.195C388.352 464.653 386.985 469.575 385.439 474.326C390.96 473.827 396.875 474.291 402.418 474.475C404.171 474.362 405.959 474.408 407.717 474.384C410.359 472.889 412.979 471.653 414.036 468.576C414.722 466.579 415.069 463.467 414.165 461.535C411.695 460.256 408.087 461.483 405.144 460.695C404.992 460.655 404.842 460.61 404.691 460.568C400.005 460.453 395.316 460.256 390.63 460.195ZM403.056 488.124C400.527 494.695 398.291 501.373 396 508.029L387.958 508.035C389.202 508.255 390.447 508.281 391.32 509.287L390.93 509.329L391.513 509.548C393.605 510.353 395.631 511.354 396.405 513.655C396.831 514.922 396.752 516.125 396.642 517.422L397.246 518.554C400.457 513.475 403.049 507.836 405.821 502.501C409.343 495.723 413.142 488.948 416.179 481.94L415.566 480.743L416.324 478.415C415.072 478.576 414.861 479.895 413.341 479.8L414.312 478.806L414.2 478.192C414.057 478.113 413.913 478.035 413.771 477.954C413.218 477.641 413.423 477.792 413.024 477.426C412.852 477.616 412.686 477.813 412.507 477.997C411.838 478.686 411.285 479.022 410.448 479.458C410.276 479.412 410.105 479.36 409.932 479.321C409.23 479.161 408.655 479.167 407.944 479.193C405.293 481.397 406.032 486.228 403.554 488.219L403.056 488.124ZM155.903 616.48L160.567 619.967C170.11 621.451 180.887 620.553 190.583 620.584C196.264 620.603 202.634 621.212 208.231 620.506C213.44 619.746 218.976 620.015 224.251 619.918L255.817 619.616L337.359 619.27C347.435 619.31 368.776 620.413 377.783 618.514C370.905 618.135 363.856 618.381 356.963 618.376L315.615 618.452L222.953 618.407C203.675 618.421 184.344 618.737 165.072 618.376C162.746 618.333 160.483 618.862 158.793 617.046C158.648 616.89 158.51 616.729 158.369 616.571L155.903 616.48ZM421.279 446.577C421.523 446.527 421.77 446.487 422.011 446.427C423.274 446.112 422.624 446.307 423.691 445.691C424.779 445.063 425.633 445.093 426.848 445.079L426.72 445.291C429.049 443.843 430.708 438.188 432.715 437.925C431.766 441.976 429.171 445.747 431.749 449.837C431.951 450.157 432.174 450.354 432.434 450.61C436.732 443.825 440.247 436.051 443.931 428.892C443.85 428.65 443.348 427.158 443.234 427.095C440.901 425.807 438.049 428.063 434.937 424.933Q428.239 435.838 421.279 446.577ZM421.279 446.577C418.898 450.066 416.196 453.602 414.42 457.439C415.779 456.425 417.231 455.709 418.555 454.646L419.651 454.538C421.146 457.607 419.09 461.878 419.329 465.247L419.932 464.766L420.38 464.741C421.083 467.261 420.221 469.015 420.781 470.094L421.984 468.43L422.801 468.678C425.183 466.491 430.713 454.155 432.434 450.61C432.174 450.354 431.951 450.157 431.749 449.837C429.171 445.747 431.766 441.976 432.715 437.925C430.708 438.188 429.049 443.843 426.72 445.291L426.848 445.079C425.633 445.093 424.779 445.063 423.691 445.691C422.624 446.307 423.274 446.112 422.011 446.427C421.77 446.487 421.523 446.527 421.279 446.577ZM414.42 457.439C413.881 458.624 413.504 459.773 412.192 460.265C409.975 461.096 407.04 460.43 404.691 460.568C404.842 460.61 404.992 460.655 405.144 460.695C408.087 461.483 411.695 460.256 414.165 461.535C415.069 463.467 414.722 466.579 414.036 468.576C412.979 471.653 410.359 472.889 407.717 474.384C405.959 474.408 404.171 474.362 402.418 474.475C404.163 474.803 405.819 475.076 407.596 475.141C406.022 479.439 404.338 483.728 403.056 488.124L403.554 488.219C406.032 486.228 405.293 481.397 407.944 479.193C408.655 479.167 409.23 479.161 409.932 479.321C410.105 479.36 410.276 479.412 410.448 479.458C411.285 479.022 411.838 478.686 412.507 477.997C412.686 477.813 412.852 477.616 413.024 477.426C413.423 477.792 413.218 477.641 413.771 477.954C413.913 478.035 414.057 478.113 414.2 478.192L414.312 478.806L413.341 479.8C414.861 479.895 415.072 478.576 416.324 478.415L415.566 480.743L416.179 481.94Q419.648 475.388 422.801 468.678L421.984 468.43L420.781 470.094C420.221 469.015 421.083 467.261 420.38 464.741L419.932 464.766L419.329 465.247C419.09 461.878 421.146 457.607 419.651 454.538L418.555 454.646C417.231 455.709 415.779 456.425 414.42 457.439ZM495.767 447.519C494.631 452.77 490.789 475.655 492.227 479.49C494.669 477.271 501.661 454.8 502.717 450.378L502.217 449.872L502.354 449.196C501.296 447.679 500.192 445.712 498.308 445.346C497.83 446.143 497.333 446.884 496.773 447.627L495.767 447.519Z"/>
	<path fill="#AC787B" transform="scale(3.44095 3.44095)" d="M424.612 557.237C428.317 557.333 432.251 557.695 435.889 556.922L435.486 558.542C434.499 559.27 433.952 559.272 432.756 559.385C430.641 559.586 426.001 559.826 424.312 558.441L424.612 557.237Z"/>
	<path fill="#AC787B" transform="scale(3.44095 3.44095)" d="M173.153 489.473C173.828 489.471 174.598 489.506 175.272 489.401C178.756 488.862 180.71 484.908 182.701 482.365C181.168 487.34 179.619 492.26 177.72 497.113C176.454 494.285 174.909 492.008 173.153 489.473Z"/>
	<path fill="#CCC2C3" transform="scale(3.44095 3.44095)" d="M841.697 537.69L842.095 537.389C843.899 537.151 845.208 537.31 846.981 537.69C851.142 545.515 854.991 549.832 863.683 552.629C862.577 552.63 861.718 552.574 860.681 553.009L860.617 553.351C859.031 554.52 858.096 554.952 856.07 554.646C855.917 554.623 855.767 554.581 855.616 554.549C855.673 554.267 855.792 553.991 855.789 553.704C855.774 552.515 850.665 549.657 849.585 548.399C846.691 545.029 845.103 540.647 841.697 537.69Z"/>
	<path fill="#CCC2C3" transform="scale(3.44095 3.44095)" d="M166.699 591.997C169.877 592.099 173.028 592.248 176.196 592.532L175.643 593.151C172.172 597.08 164.634 609.637 160.979 611.422L158.804 611.287C159.562 611.035 159.965 610.834 160.618 610.413C162.991 604.956 166.379 597.994 166.699 591.997Z"/>
	<defs>
		<linearGradient id="gradient_0" gradientUnits="userSpaceOnUse" x1="494.94333" y1="445.72882" x2="499.51974" y2="464.92233">
			<stop offset="0" stop-color="#C0959F" stop-opacity="0.3764706"/>
			<stop offset="1" stop-color="#AA7A80" stop-opacity="0.60392159"/>
		</linearGradient>
	</defs>
	<path fill="url(#gradient_0)" transform="scale(3.44095 3.44095)" d="M495.767 447.519L496.773 447.627C497.333 446.884 497.83 446.143 498.308 445.346C500.192 445.712 501.296 447.679 502.354 449.196L502.217 449.872L502.717 450.378C501.661 454.8 494.669 477.271 492.227 479.49C490.789 475.655 494.631 452.77 495.767 447.519Z"/>
	<path fill="#BF1C29" transform="scale(3.44095 3.44095)" d="M215.468 592.926C225.63 592.089 236.031 592.585 246.221 592.701Q265.974 592.902 285.728 592.841Q278.925 600.566 272.576 608.667L270.364 607.977Q275.674 601.408 281.224 595.04C260.27 595.013 239.307 594.373 218.366 594.464L221.634 593.501C221.172 592.994 216.485 593.023 215.468 592.926Z"/>
	<defs>
		<linearGradient id="gradient_1" gradientUnits="userSpaceOnUse" x1="440.86646" y1="532.06439" x2="429.41043" y2="557.534">
			<stop offset="0" stop-color="#B0878B"/>
			<stop offset="1" stop-color="#DDB4B2"/>
		</linearGradient>
	</defs>
	<path fill="url(#gradient_1)" transform="scale(3.44095 3.44095)" d="M424.612 557.237C429.509 547.044 434.2 536.403 440.293 526.862C439.35 533.758 435.619 551.496 435.889 556.922C432.251 557.695 428.317 557.333 424.612 557.237Z"/>
	<defs>
		<linearGradient id="gradient_2" gradientUnits="userSpaceOnUse" x1="413.11826" y1="469.25824" x2="415.70667" y2="476.573">
			<stop offset="0" stop-color="#F0DCDC" stop-opacity="0.12941177"/>
			<stop offset="1" stop-color="#E6D1D1" stop-opacity="0.20392157"/>
		</linearGradient>
	</defs>
	<path fill="url(#gradient_2)" transform="scale(3.44095 3.44095)" d="M414.42 457.439C415.779 456.425 417.231 455.709 418.555 454.646L419.651 454.538C421.146 457.607 419.09 461.878 419.329 465.247L419.932 464.766L420.38 464.741C421.083 467.261 420.221 469.015 420.781 470.094L421.984 468.43L422.801 468.678Q419.648 475.388 416.179 481.94L415.566 480.743L416.324 478.415C415.072 478.576 414.861 479.895 413.341 479.8L414.312 478.806L414.2 478.192C414.057 478.113 413.913 478.035 413.771 477.954C413.218 477.641 413.423 477.792 413.024 477.426C412.852 477.616 412.686 477.813 412.507 477.997C411.838 478.686 411.285 479.022 410.448 479.458C410.276 479.412 410.105 479.36 409.932 479.321C409.23 479.161 408.655 479.167 407.944 479.193C405.293 481.397 406.032 486.228 403.554 488.219L403.056 488.124C404.338 483.728 406.022 479.439 407.596 475.141C405.819 475.076 404.163 474.803 402.418 474.475C404.171 474.362 405.959 474.408 407.717 474.384C410.359 472.889 412.979 471.653 414.036 468.576C414.722 466.579 415.069 463.467 414.165 461.535C411.695 460.256 408.087 461.483 405.144 460.695C404.992 460.655 404.842 460.61 404.691 460.568C407.04 460.43 409.975 461.096 412.192 460.265C413.504 459.773 413.881 458.624 414.42 457.439Z"/>
	<path fill="#EFE4E5" fill-opacity="0.25882354" transform="scale(3.44095 3.44095)" d="M421.279 446.577C421.523 446.527 421.77 446.487 422.011 446.427C423.274 446.112 422.624 446.307 423.691 445.691C424.779 445.063 425.633 445.093 426.848 445.079L426.72 445.291C429.049 443.843 430.708 438.188 432.715 437.925C431.766 441.976 429.171 445.747 431.749 449.837C431.951 450.157 432.174 450.354 432.434 450.61C430.713 454.155 425.183 466.491 422.801 468.678L421.984 468.43L420.781 470.094C420.221 469.015 421.083 467.261 420.38 464.741L419.932 464.766L419.329 465.247C419.09 461.878 421.146 457.607 419.651 454.538L418.555 454.646C417.231 455.709 415.779 456.425 414.42 457.439C416.196 453.602 418.898 450.066 421.279 446.577Z"/>
	<path fill="#EFE4E5" fill-opacity="0.27058825" transform="scale(3.44095 3.44095)" d="M421.279 446.577Q428.239 435.838 434.937 424.933C438.049 428.063 440.901 425.807 443.234 427.095C443.348 427.158 443.85 428.65 443.931 428.892C440.247 436.051 436.732 443.825 432.434 450.61C432.174 450.354 431.951 450.157 431.749 449.837C429.171 445.747 431.766 441.976 432.715 437.925C430.708 438.188 429.049 443.843 426.72 445.291L426.848 445.079C425.633 445.093 424.779 445.063 423.691 445.691C422.624 446.307 423.274 446.112 422.011 446.427C421.77 446.487 421.523 446.527 421.279 446.577Z"/>
	<path fill="#960B16" transform="scale(3.44095 3.44095)" d="M167.215 612.276C169.25 610.134 171.112 607.839 173.003 605.57L174.131 606.607L170.866 610.585C181.647 609.342 192.832 610.202 203.681 610.307C217.625 610.443 231.599 610.184 245.544 610.085C252.581 610.036 261.234 610.867 268.09 609.417C269.093 609.205 269.674 608.694 270.364 607.977L272.576 608.667L269.785 612.113C255.57 612.718 241.302 612.31 227.079 612.261L167.215 612.276Z"/>
	<path fill="#BA999A" fill-opacity="0.98431373" transform="scale(3.44095 3.44095)" d="M155.903 616.48L158.369 616.571C158.51 616.729 158.648 616.89 158.793 617.046C160.483 618.862 162.746 618.333 165.072 618.376C184.344 618.737 203.675 618.421 222.953 618.407L315.615 618.452L356.963 618.376C363.856 618.381 370.905 618.135 377.783 618.514C368.776 620.413 347.435 619.31 337.359 619.27L255.817 619.616L224.251 619.918C218.976 620.015 213.44 619.746 208.231 620.506C202.634 621.212 196.264 620.603 190.583 620.584C180.887 620.553 170.11 621.451 160.567 619.967L155.903 616.48Z"/>
	<path fill="#EFE4E5" transform="scale(3.44095 3.44095)" d="M545.308 559.783C545.326 562.448 545.611 565.094 545.861 567.745C538.976 567.999 493.651 568.203 491.076 569.439C490.657 569.64 490.346 570.016 489.981 570.304L489.843 571.004C489.585 572.374 489.718 571.564 489.591 572.914C489.219 576.877 486.188 579.831 487.062 584.058L485.966 584.474C485.057 578.063 485.131 570.769 485.649 564.322C496.336 564.775 529.857 565.627 538.719 563.31C541.193 562.663 543.213 561.191 545.308 559.783Z"/>
	<path fill="#C7A9A8" fill-opacity="0.32941177" transform="scale(3.44095 3.44095)" d="M403.056 488.124L403.554 488.219C406.032 486.228 405.293 481.397 407.944 479.193C408.655 479.167 409.23 479.161 409.932 479.321C410.105 479.36 410.276 479.412 410.448 479.458C411.285 479.022 411.838 478.686 412.507 477.997C412.686 477.813 412.852 477.616 413.024 477.426C413.423 477.792 413.218 477.641 413.771 477.954C413.913 478.035 414.057 478.113 414.2 478.192L414.312 478.806L413.341 479.8C414.861 479.895 415.072 478.576 416.324 478.415L415.566 480.743L416.179 481.94C413.142 488.948 409.343 495.723 405.821 502.501C403.049 507.836 400.457 513.475 397.246 518.554L396.642 517.422C396.752 516.125 396.831 514.922 396.405 513.655C395.631 511.354 393.605 510.353 391.513 509.548L390.93 509.329L391.32 509.287C390.447 508.281 389.202 508.255 387.958 508.035L396 508.029C398.291 501.373 400.527 494.695 403.056 488.124Z"/>
	<path fill="#BA999A" fill-opacity="0.98823529" transform="scale(3.44095 3.44095)" d="M564.801 618.518Q600.525 618.282 636.251 618.404L751.328 618.409L802.64 618.425C811.515 618.422 820.59 618.83 829.434 618.285C830.926 618.193 832.008 617.995 833.373 617.393C833.785 617.911 834.088 618.346 834.414 618.93C826.609 622.739 791.11 621.725 780.923 621.444C782.938 620.946 785.184 620.92 787.254 620.737C769.415 618.187 749.78 619.924 731.747 619.76C725.644 619.704 719.557 619.15 713.453 619.084C698.564 618.924 683.624 619.254 668.727 619.277L615.469 619.168L585.095 619.344C578.457 619.357 571.306 619.938 564.801 618.518Z"/>
	<defs>
		<linearGradient id="gradient_3" gradientUnits="userSpaceOnUse" x1="846.91785" y1="497.56671" x2="850.64807" y2="481.65192">
			<stop offset="0" stop-color="#95616E"/>
			<stop offset="1" stop-color="#B68F9A"/>
		</linearGradient>
	</defs>
	<path fill="url(#gradient_3)" transform="scale(3.44095 3.44095)" d="M828.288 474.482C829.591 470.42 830.979 462.689 833.842 459.555C834.468 458.87 835.384 459.095 836.254 459.045C837.452 459.362 839.003 459.535 839.938 460.352C839.156 461.259 838.46 461.469 837.394 461.944C835.429 462.818 834.4 463.787 833.699 465.837C833.289 467.036 833.318 468.306 833.936 469.437C834.897 471.195 836.96 472.111 838.852 472.425C842.158 472.974 849.549 471.847 851.853 474.115C852.193 475.743 852.057 476.936 853.425 477.941C859.326 478.664 863.855 473.011 869.207 471.409C873.452 470.138 878.437 471.657 882.568 470.227C885.945 470.559 892.767 470.928 895.195 473.346C895.74 473.889 895.511 474.137 895.436 474.82L894.211 476.004L893.305 475.926C893.128 475.942 892.952 475.962 892.776 475.975C889.179 476.242 885.56 475.528 881.995 475.092C870.559 473.694 861.641 475.743 853.826 484.662C849.144 490.006 845.972 496.259 843.62 502.921L841.612 502.528C844.252 493.347 848.092 484.084 851.535 475.172C843.782 474.918 836.038 474.895 828.288 474.482Z"/>
	<path fill="#CCC2C3" transform="scale(3.44095 3.44095)" d="M978.021 534.961C978.652 536.074 979.323 537.164 979.831 538.34L978.111 537.958C977.481 549.134 975.74 554.804 967.336 562.405C963.139 566.201 958.244 569.553 952.903 571.502C948.768 573.011 935.99 573.985 933.942 576.105C933.962 577.126 933.901 577.305 934.724 578.022C939.4 582.091 949.976 583.63 956.006 582.896C961.811 582.191 966.201 579.523 969.816 574.965C974.944 568.499 975.928 559.916 980.626 553.568Q980.442 558.112 979.652 562.591C978.199 570.876 974.372 578.984 967.187 583.771C961.133 587.805 954.01 588.449 947.017 587.103C938.426 585.448 929.813 581.394 924.766 574.04L926.958 570.382C938.322 571.504 948.947 571.387 958.9 565.038C969.683 558.16 975.331 547.133 978.021 534.961Z"/>
	<path fill="#AC787B" transform="scale(3.44095 3.44095)" d="M573.489 484.684C574.423 484.533 574.499 484.557 575.463 484.898C575.694 489.793 571.79 496.912 569.951 501.485C557.96 501.827 545.87 501.806 533.874 501.614C533.138 501.556 532.715 501.438 532.033 501.195C531.655 498.149 533.752 493.849 534.774 490.997C547.618 488.791 560.594 486.564 573.489 484.684Z"/>
	<path fill="#EFE4E5" transform="scale(3.44095 3.44095)" d="M563.413 489.134Q564.734 488.941 566.069 488.905C567.411 488.873 568.36 489.015 569.324 490.053C570.344 491.151 571.049 492.675 570.893 494.203C570.765 495.457 570.077 496.422 569.131 497.205C565.435 500.264 549.476 498.596 544.288 498.374C541.359 498.186 538.767 497.813 536.409 495.951L536.293 494.921C539.076 491.471 558.182 490.072 563.413 489.134Z"/>
	<defs>
		<linearGradient id="gradient_4" gradientUnits="userSpaceOnUse" x1="953.69257" y1="544.21259" x2="963.21576" y2="578.69769">
			<stop offset="0" stop-color="#C7B1B3"/>
			<stop offset="1" stop-color="#FEFEFE"/>
		</linearGradient>
	</defs>
	<path fill="url(#gradient_4)" transform="scale(3.44095 3.44095)" d="M980.626 553.568C975.928 559.916 974.944 568.499 969.816 574.965C966.201 579.523 961.811 582.191 956.006 582.896C949.976 583.63 939.4 582.091 934.724 578.022C933.901 577.305 933.962 577.126 933.942 576.105C935.99 573.985 948.768 573.011 952.903 571.502C958.244 569.553 963.139 566.201 967.336 562.405C975.74 554.804 977.481 549.134 978.111 537.958L979.831 538.34L980.678 540.523C980.599 544.69 981.84 549.535 980.626 553.568Z"/>
	<path fill="#AC787B" transform="scale(3.44095 3.44095)" d="M143.524 564.471C155.48 564.156 167.464 564.487 179.422 564.647Q174.917 571.91 169.751 578.719L163.81 587.046C162.541 587.062 161.259 587.085 159.99 587.021C155.209 586.778 150.556 585.515 147.311 581.773C143.038 576.845 142.939 570.58 143.524 564.471Z"/>
	<path fill="#FDFCFD" transform="scale(3.44095 3.44095)" d="M151.314 566.668C155.756 566.889 166.84 566.387 169.814 569.93C170.401 570.63 170.599 571.303 170.594 572.184C170.572 575.551 166.445 579.216 164.213 581.51C163.164 582.04 162.098 582.446 160.951 582.702C157.542 583.463 153.856 582.931 150.958 580.938C148.5 579.248 146.612 576.418 146.093 573.472C145.771 571.645 146.018 569.669 147.215 568.191C148.193 566.983 149.883 566.891 151.314 566.668Z"/>
	<path fill="#C7A9A8" transform="scale(3.44095 3.44095)" d="M538.401 618.524C547.1 618.405 556.124 617.899 564.801 618.518C571.306 619.938 578.457 619.357 585.095 619.344L615.469 619.168L668.727 619.277C683.624 619.254 698.564 618.924 713.453 619.084C719.557 619.15 725.644 619.704 731.747 619.76C749.78 619.924 769.415 618.187 787.254 620.737C785.184 620.92 782.938 620.946 780.923 621.444Q696.588 622.339 612.249 621.699Q588.893 621.546 565.536 621.656C556.132 621.71 546.473 622.283 537.096 621.586C537.336 620.501 537.916 619.521 538.401 618.524Z"/>
	<path fill="#CCC2C3" transform="scale(3.44095 3.44095)" d="M935.393 459.948C937.262 460.936 938.519 462.163 940.004 463.654C939.561 465.438 940.085 465.934 941.022 467.511C946.401 476.572 945.046 485.657 942.857 495.472C941.848 499.997 940.872 504.568 938.622 508.672C935.422 514.51 923.61 524.681 927.365 531.778C928.118 533.201 929.575 533.897 931.1 534.123C935.681 534.801 940.847 532.024 944.294 529.262C950.784 524.06 953.266 515.993 953.926 508.006C954.81 497.302 950.872 486.931 949.982 476.321C955.89 488.696 960.362 505.682 956.672 519.21C954.724 526.352 950.445 532.51 943.878 536.141C939.401 538.616 932.631 540.958 927.624 539.378C925.456 538.693 923.721 537.237 922.762 535.165C916.96 522.628 935.065 510.777 939.165 499.969C944.291 486.458 940.979 472.638 935.393 459.948Z"/>
	<path fill="#CCC2C3" transform="scale(3.44095 3.44095)" d="M80.0921 466.069C81.6738 465.562 83.1273 464.723 84.6036 463.965C80.4101 476.087 77.9066 491.098 84.0233 503.126C88.9788 512.87 103.684 521.329 99.9072 534.097Q99.7908 534.5 99.6341 534.888Q99.4773 535.277 99.2819 535.647Q99.0864 536.018 98.8542 536.367Q98.6221 536.716 98.3556 537.039Q98.0892 537.363 97.7912 537.657Q97.4933 537.952 97.1669 538.214Q96.8405 538.477 96.4891 538.706Q96.1376 538.934 95.7648 539.125C92.0299 541.088 87.2982 539.929 83.5422 538.601C76.3534 536.06 70.4382 531.37 67.1721 524.347C61.5353 512.227 64.0088 497.355 68.5003 485.296C69.6983 482.08 70.9741 478.474 72.6477 475.5C72.9465 477.808 71.9266 480.966 71.4852 483.29C69.3073 494.759 66.2971 506.875 70.3355 518.295C72.4859 524.376 76.4007 529.29 82.3078 532.056C84.8986 533.269 89.7048 535.247 92.4899 533.84C93.6589 533.249 94.5295 532.136 94.8679 530.878C96.7738 523.794 85.6737 513.088 81.7736 507.593C81.3206 506.955 80.8436 506.337 80.5208 505.618C77.833 499.63 76.2556 485.074 77.125 478.573C77.6541 474.617 79.3313 470.493 80.7235 466.763L80.0921 466.069Z"/>
	<path fill="#BA999A" transform="scale(3.44095 3.44095)" d="M841.612 502.528L843.62 502.921C840.025 513.195 843.962 522.539 844.925 532.323C844.042 532.195 843.441 530.009 842.344 529.277C841.047 529.322 840.403 529.494 839.273 530.135C829.292 529.433 819.255 529.54 809.254 529.47C811.886 522.253 814.114 514.854 816.485 507.546L840.17 507.554L841.612 502.528Z"/>
	<path fill="#FDFCFD" transform="scale(3.44095 3.44095)" d="M821.171 511.186C825.943 510.845 832.539 509.655 836.86 512.185C838.503 513.147 839.703 514.687 840.165 516.544C840.805 519.116 839.717 522.702 838.147 524.757C836.762 526.569 835.431 526.657 833.324 526.844C829.135 526.695 817.822 527.353 814.962 524.421C813.962 521.493 815.412 518.403 816.638 515.741C817.828 513.154 818.472 512.188 821.171 511.186Z"/>
	<defs>
		<linearGradient id="gradient_5" gradientUnits="userSpaceOnUse" x1="97.167183" y1="487.92035" x2="67.4431" y2="515.09253">
			<stop offset="0" stop-color="#DAD5D5"/>
			<stop offset="1" stop-color="white"/>
		</linearGradient>
	</defs>
	<path fill="url(#gradient_5)" transform="scale(3.44095 3.44095)" d="M76.9205 467.183L80.0921 466.069L80.7235 466.763C79.3313 470.493 77.6541 474.617 77.125 478.573C76.2556 485.074 77.833 499.63 80.5208 505.618C80.8436 506.337 81.3206 506.955 81.7736 507.593C85.6737 513.088 96.7738 523.794 94.8679 530.878C94.5295 532.136 93.6589 533.249 92.4899 533.84C89.7048 535.247 84.8986 533.269 82.3078 532.056C76.4007 529.29 72.4859 524.376 70.3355 518.295C66.2971 506.875 69.3073 494.759 71.4852 483.29C71.9266 480.966 72.9465 477.808 72.6477 475.5C73.5621 472.493 75.3217 469.863 76.9205 467.183Z"/>
	<defs>
		<linearGradient id="gradient_6" gradientUnits="userSpaceOnUse" x1="923.9281" y1="487.27777" x2="954.17603" y2="514.98108">
			<stop offset="0" stop-color="#DBD8D7"/>
			<stop offset="1" stop-color="white"/>
		</linearGradient>
	</defs>
	<path fill="url(#gradient_6)" transform="scale(3.44095 3.44095)" d="M940.004 463.654Q942.598 465.62 945.246 467.514C947.018 470.401 948.655 473.199 949.982 476.321C950.872 486.931 954.81 497.302 953.926 508.006C953.266 515.993 950.784 524.06 944.294 529.262C940.847 532.024 935.681 534.801 931.1 534.123C929.575 533.897 928.118 533.201 927.365 531.778C923.61 524.681 935.422 514.51 938.622 508.672C940.872 504.568 941.848 499.997 942.857 495.472C945.046 485.657 946.401 476.572 941.022 467.511C940.085 465.934 939.561 465.438 940.004 463.654Z"/>
	<path fill="#C7A9A8" transform="scale(3.44095 3.44095)" d="M43.2139 526.48C44.1005 540.072 47.5361 551.842 58.0209 561.167C66.2052 568.446 76.6897 571.736 87.5755 571.015C89.9712 570.856 92.3119 570.485 94.6694 570.044C95.5616 571.372 96.4268 572.738 97.3719 574.028C90.0094 582.208 81.3173 586.958 70.178 587.52C63.0562 587.879 56.4675 586.058 51.1937 581.05C42.9466 573.218 41.122 560.299 41.0161 549.475C40.9821 546.006 42.3581 541.741 41.7467 538.447C43.5007 534.723 43.1323 530.513 43.2139 526.48Z"/>
	<defs>
		<linearGradient id="gradient_7" gradientUnits="userSpaceOnUse" x1="66.287697" y1="556.08521" x2="58.233997" y2="577.78802">
			<stop offset="0" stop-color="#DEC9CB"/>
			<stop offset="1" stop-color="white"/>
		</linearGradient>
	</defs>
	<path fill="url(#gradient_7)" transform="scale(3.44095 3.44095)" d="M44.628 547.914C45.1684 548.628 45.3897 549.168 45.6681 550.028C45.935 550.854 46.0702 551.691 46.4585 552.482C47.3174 554.231 48.9606 555.996 50.1996 557.51C56.6837 565.431 64.7245 571.794 75.0278 573.585C78.4452 574.179 83.2165 573.565 86.3334 574.833C87.1263 575.156 86.8795 575.101 87.1965 576.016C86.3766 577.683 85.0151 578.36 83.4854 579.327C79.1824 581.504 74.8415 582.747 69.9648 582.756C63.3257 582.769 57.6152 580.307 53.0297 575.523C47.1007 569.337 44.8161 562.107 43.9378 553.753C43.7837 552.287 43.2719 550.826 43.3755 549.349C43.4329 548.531 44.0233 548.383 44.628 547.914Z"/>
	<path fill="#C7A9A8" transform="scale(3.44095 3.44095)" d="M839.273 530.135C840.403 529.494 841.047 529.322 842.344 529.277C843.441 530.009 844.042 532.195 844.925 532.323L846.981 537.69C845.208 537.31 843.899 537.151 842.095 537.389L841.697 537.69C845.103 540.647 846.691 545.029 849.585 548.399C850.665 549.657 855.774 552.515 855.789 553.704C855.792 553.991 855.673 554.267 855.616 554.549C855.767 554.581 855.917 554.623 856.07 554.646C858.096 554.952 859.031 554.52 860.617 553.351L860.681 553.009C861.718 552.574 862.577 552.63 863.683 552.629C867.037 553.151 870.291 553.549 873.686 553.655C875.848 561.588 880.206 567.808 877.287 576.387C875.86 580.577 873.054 584.097 869.03 586.034C866.083 587.452 860.391 588.784 857.16 587.618L858.461 586.405L858.365 585.982C854.392 585.44 849.985 585.668 845.95 585.452Q856.023 572.87 865.069 559.531C852.896 559.382 840.698 559.559 828.537 558.943C831.002 551.9 835.448 535.471 839.273 530.135Z"/>
	<path fill="#EFE4E5" transform="scale(3.44095 3.44095)" d="M833.793 554.261C835.051 548.113 837.257 542.238 841.697 537.69C845.103 540.647 846.691 545.029 849.585 548.399C850.665 549.657 855.774 552.515 855.789 553.704C855.792 553.991 855.673 554.267 855.616 554.549Q854.276 554.875 852.918 555.115Q851.56 555.356 850.19 555.511Q848.82 555.666 847.442 555.734Q846.065 555.803 844.686 555.784Q843.307 555.766 841.932 555.661Q840.557 555.557 839.192 555.366Q837.826 555.175 836.475 554.898Q835.124 554.622 833.793 554.261Z"/>
	<path fill="#FDFCFD" transform="scale(3.44095 3.44095)" d="M868.628 560.311C869.235 560.616 869.336 560.636 869.939 561.1C872.104 562.764 873.975 566.829 874.227 569.491C874.519 572.57 873.801 575.605 871.811 578.003C869.226 581.117 866.305 581.515 862.478 581.784C861.476 581.585 859.732 581.225 858.918 580.539C857.883 579.667 857.625 578.92 857.572 577.595C857.377 572.68 865.154 563.456 868.628 560.311Z"/>
	<path fill="#CCC2C3" transform="scale(3.44095 3.44095)" d="M875.156 430.53C887.478 434.521 898.749 443.188 904.71 454.797C909.932 464.966 912.378 480.108 908.704 491.137C907.406 495.034 905.19 498.558 903.981 502.483C901.086 511.88 901.001 524.952 890.88 530.049C886.627 532.192 881.126 531.803 876.752 530.142C873.512 528.913 871.307 526.132 870.024 523C868.351 518.916 868.019 514.397 867.983 510.031C883.062 499.199 882.518 485.338 893.305 475.926L894.211 476.004C891.409 485.322 886.141 494.744 880.863 502.915C878.744 506.195 876.238 509.237 874.284 512.621C873.133 514.615 872.741 516.643 873.398 518.88Q873.546 519.371 873.741 519.846Q873.937 520.32 874.178 520.773Q874.42 521.225 874.704 521.652Q874.989 522.079 875.315 522.475Q875.64 522.872 876.003 523.234Q876.366 523.597 876.763 523.921Q877.161 524.246 877.588 524.53Q878.015 524.814 878.468 525.055C881.051 526.398 884.412 526.708 887.182 525.782C890.875 524.548 892.561 521.694 894.152 518.349C896.348 513.731 897.512 508.523 899.164 503.687C904.297 488.659 909.504 477.88 903.392 461.928C899.88 452.762 891.154 441.796 881.86 438.003C879.909 437.206 877.811 436.903 875.942 438.105C871.091 441.226 866.209 455.817 860.847 460.844C856.195 465.205 844.678 461.024 838.866 464.021C837.708 464.618 837.445 465.158 837.063 466.348C837.219 467.251 837.316 468.019 837.942 468.744C840.81 472.065 854.361 472.599 858.738 472.295C867.934 471.656 872.69 469.08 882.568 470.227C878.437 471.657 873.452 470.138 869.207 471.409C863.855 473.011 859.326 478.664 853.425 477.941C852.057 476.936 852.193 475.743 851.853 474.115C849.549 471.847 842.158 472.974 838.852 472.425C836.96 472.111 834.897 471.195 833.936 469.437C833.318 468.306 833.289 467.036 833.699 465.837C834.4 463.787 835.429 462.818 837.394 461.944C838.46 461.469 839.156 461.259 839.938 460.352C839.003 459.535 837.452 459.362 836.254 459.045L857.495 458.914C862.787 449.048 869.822 440.308 875.156 430.53Z"/>
	<path fill="#CCC2C3" transform="scale(3.44095 3.44095)" d="M171.828 425.908C173.189 425.099 174.7 424.546 176.158 423.934C173.475 434.657 169.274 445.091 165.725 455.557C174.047 455.545 183.114 454.919 191.357 456.158L182.701 482.365C180.71 484.908 178.756 488.862 175.272 489.401C174.598 489.506 173.828 489.471 173.153 489.473C170.633 485.891 167.757 482.394 164.241 479.745C153.237 471.454 143.1 474.934 130.867 476.672C139.614 488.618 141.116 500.958 154.259 509.829C154.011 513.833 153.836 517.763 152.417 521.566C150.891 525.651 148.103 529.016 144.062 530.783Q143.421 531.071 142.753 531.292Q142.086 531.513 141.4 531.666Q140.713 531.818 140.015 531.9Q139.317 531.981 138.614 531.992Q137.911 532.002 137.211 531.941Q136.511 531.88 135.82 531.748Q135.13 531.616 134.456 531.414Q133.783 531.213 133.133 530.944C121.255 526.047 121.183 514.183 118.31 503.749C117.34 500.224 115.508 496.982 114.072 493.631C109.585 483.157 111.629 469.11 115.805 458.811C121.82 443.979 133.908 435.977 148.171 429.905C147.142 431.435 146.329 431.964 144.683 432.765L145.208 432.845C136.114 442.221 126.327 443.55 119.834 456.672C115.023 466.395 112.83 479.632 116.331 490.112C117.814 494.551 120.195 498.683 121.793 503.09C123.293 507.228 123.719 511.678 125.21 515.825C126.717 520.015 129.231 523.737 133.432 525.555C136.331 526.809 139.531 527.266 142.497 525.993C145.398 524.749 147.954 521.608 148.929 518.645C151.479 510.894 143.357 507.571 140.338 501.784C137.729 496.782 134.76 491.932 132.353 486.834C130.934 483.829 128.365 478.665 129.959 475.411C130.993 473.3 133.452 472.287 135.59 471.728C145.248 469.2 158.263 470.953 166.306 476.956C169.049 479.002 171.625 482.194 174.654 483.726C175.705 484.259 175.855 484.119 176.904 483.75C179.179 481.521 180.265 478.57 181.275 475.611C182.48 472.08 185.362 464.788 183.385 461.272C180.946 456.934 170.7 461.122 166.305 459.364C165.099 458.881 164.377 458.061 163.863 456.889C161.422 451.319 169.725 431.721 171.828 425.908Z"/>
	<defs>
		<linearGradient id="gradient_8" gradientUnits="userSpaceOnUse" x1="225.21573" y1="591.97003" x2="226.7142" y2="611.61157">
			<stop offset="0" stop-color="#410000"/>
			<stop offset="1" stop-color="#970517"/>
		</linearGradient>
	</defs>
	<path fill="url(#gradient_8)" transform="scale(3.44095 3.44095)" d="M183.234 592.791C193.457 591.987 205.145 592.664 215.468 592.926C216.485 593.023 221.172 592.994 221.634 593.501L218.366 594.464C239.307 594.373 260.27 595.013 281.224 595.04Q275.674 601.408 270.364 607.977C269.674 608.694 269.093 609.205 268.09 609.417C261.234 610.867 252.581 610.036 245.544 610.085C231.599 610.184 217.625 610.443 203.681 610.307C192.832 610.202 181.647 609.342 170.866 610.585L174.131 606.607L173.003 605.57C176.511 601.396 179.844 597.062 183.234 592.791Z"/>
	<path fill="#BF1C29" transform="scale(3.44095 3.44095)" d="M183.234 592.791C193.457 591.987 205.145 592.664 215.468 592.926C216.485 593.023 221.172 592.994 221.634 593.501L218.366 594.464C207.097 594.893 196.028 594.439 184.788 594.523C180.952 598.325 177.85 602.731 174.131 606.607L173.003 605.57C176.511 601.396 179.844 597.062 183.234 592.791Z"/>
	<path fill="#BF1C29" transform="scale(3.44095 3.44095)" d="M854.328 565.224C849.527 571.646 844.043 578.281 838.38 583.948L837.308 585.145C831.416 586.579 816.724 585.654 810.239 585.677C784.465 585.769 758.682 585.363 732.911 585.64C737.579 580.506 741.355 574.547 745.997 569.369C746.978 567.977 747.918 566.516 748.964 565.175C768.954 565.501 788.912 565.153 808.9 565.217C823.983 565.265 839.268 565.885 854.328 565.224Z"/>
	<path fill="#960B16" transform="scale(3.44095 3.44095)" d="M749.808 567.933C773.99 568.447 798.171 568.046 822.355 567.874C831.72 567.807 841.259 567.247 850.604 567.614C848.816 569.641 846.474 571.856 845.054 574.138C834.382 571.778 820.221 572.837 809.062 572.604C791.928 572.246 774.465 571.014 757.368 572.103C753.18 572.37 749.253 573.131 745.231 574.301C745.235 573.097 746.369 571.965 747.048 570.97C747.946 569.962 748.827 568.855 749.808 567.933Z"/>
	<path fill="#FDFCFD" transform="scale(3.44095 3.44095)" d="M882.568 470.227C872.69 469.08 867.934 471.656 858.738 472.295C854.361 472.599 840.81 472.065 837.942 468.744C837.316 468.019 837.219 467.251 837.063 466.348C837.445 465.158 837.708 464.618 838.866 464.021C844.678 461.024 856.195 465.205 860.847 460.844C866.209 455.817 871.091 441.226 875.942 438.105C877.811 436.903 879.909 437.206 881.86 438.003C891.154 441.796 899.88 452.762 903.392 461.928C909.504 477.88 904.297 488.659 899.164 503.687C897.512 508.523 896.348 513.731 894.152 518.349C892.561 521.694 890.875 524.548 887.182 525.782C884.412 526.708 881.051 526.398 878.468 525.055Q878.015 524.814 877.588 524.53Q877.161 524.246 876.763 523.921Q876.366 523.597 876.003 523.234Q875.64 522.872 875.315 522.475Q874.989 522.079 874.704 521.652Q874.42 521.225 874.178 520.773Q873.937 520.32 873.741 519.846Q873.546 519.371 873.398 518.88C872.741 516.643 873.133 514.615 874.284 512.621C876.238 509.237 878.744 506.195 880.863 502.915C886.141 494.744 891.409 485.322 894.211 476.004L895.436 474.82C895.511 474.137 895.74 473.889 895.195 473.346C892.767 470.928 885.945 470.559 882.568 470.227Z"/>
	<path fill="#BF1C29" transform="scale(3.44095 3.44095)" d="M818.258 592.743L847.007 592.561L830.154 612.444Q788.89 611.989 747.625 612.37Q732.275 612.612 716.932 612.09C721.139 605.487 726.481 598.954 731.637 593.067C744.177 592.417 756.83 592.944 769.384 593.028Q793.822 593.082 818.258 592.743Z"/>
	<path fill="#BF1C29" transform="scale(3.44095 3.44095)" d="M186.204 565.52L303.643 565.489Q295.368 575.341 286.873 585.003C286.116 585.598 284.586 585.512 283.666 585.532C245.919 586.359 208.146 584.843 170.372 586.032C176.434 580.206 181.383 572.402 186.204 565.52Z"/>
	<defs>
		<linearGradient id="gradient_9" gradientUnits="userSpaceOnUse" x1="238.81519" y1="566.88342" x2="239.07874" y2="575.24908">
			<stop offset="0" stop-color="#430003"/>
			<stop offset="1" stop-color="#75070E"/>
		</linearGradient>
	</defs>
	<path fill="url(#gradient_9)" transform="scale(3.44095 3.44095)" d="M186.899 567.769C198.768 567.232 210.858 567.688 222.75 567.649Q261.106 567.468 299.461 567.67C297.211 570.071 295.159 572.695 293.059 575.23C290.776 578.415 288.355 581.461 285.888 584.504C263.667 585.101 241.378 584.505 219.152 584.467C205.743 584.445 190.601 585.338 177.459 584.16C176.332 584.166 175.887 584.204 174.846 583.707L175.563 582.944L175.279 583.039C179.277 578.026 183.228 573.029 186.899 567.769Z"/>
	<path fill="#960B16" transform="scale(3.44095 3.44095)" d="M185.176 577.859C191.794 577.207 198.426 577.214 205.062 576.883C212.61 576.506 220.255 575.832 227.809 575.895C232.957 575.938 238.099 576.414 243.247 576.527C249.47 576.664 255.718 576.232 261.944 576.168C272.319 576.062 282.726 576.271 293.059 575.23C290.776 578.415 288.355 581.461 285.888 584.504C263.667 585.101 241.378 584.505 219.152 584.467C205.743 584.445 190.601 585.338 177.459 584.16L178.748 583.804C178.038 583.636 177.327 583.488 176.613 583.34C176.693 581.954 177.119 581.874 178.011 580.871C178.675 581.105 179.326 581.355 179.981 581.614C181.997 580.806 183.543 579.255 185.176 577.859Z"/>
	<defs>
		<linearGradient id="gradient_10" gradientUnits="userSpaceOnUse" x1="643.99951" y1="593.4967" x2="644.00049" y2="611.00323">
			<stop offset="0" stop-color="#A40616"/>
			<stop offset="1" stop-color="#CC1D29"/>
		</linearGradient>
	</defs>
	<path fill="url(#gradient_10)" transform="scale(3.44095 3.44095)" d="M583.397 592.663C603.101 592.116 622.835 593.71 642.539 593.587C668.133 593.427 693.943 591.524 719.515 593.026C714.899 599.488 709.493 605.566 704.408 611.664C704.113 611.884 703.878 612.231 703.522 612.325C700.779 613.044 687.693 612.389 684.002 612.391L619.389 612.271C603.84 612.237 583.913 613.488 568.965 612.07C573.218 605.309 578.537 599.009 583.397 592.663Z"/>
	<path fill="#FDFCFD" transform="scale(3.44095 3.44095)" d="M489.981 570.304C490.346 570.016 490.657 569.64 491.076 569.439C493.651 568.203 538.976 567.999 545.861 567.745C546.143 572.47 546.838 576.617 544.912 581.076C544.796 581.344 544.694 581.617 544.586 581.887C543.963 578.679 544.16 575.431 544.271 572.182C537.538 581.172 532.609 587.006 520.817 588.909C521.315 584.166 522.585 579.469 522.841 574.73C521.831 577.495 518.333 586.529 519.317 589.096C520.289 591.631 530.4 592.724 531.559 594.214C531.839 594.574 531.821 595.089 531.952 595.527C536.297 596.75 540.61 594.531 544.31 592.428C544.423 592.364 544.534 592.296 544.646 592.23C544.071 588.543 544.483 583.481 546.229 580.154L546.886 579.992C547.943 581.908 548.087 583.923 548.397 586.055C549.744 587.489 551.06 588.987 552.521 590.304C550.235 594.288 546.984 600.679 542.728 602.737Q537.187 602.943 531.694 602.181C531.623 603.734 532.4 605.793 533.417 606.971C533.537 607.11 533.685 607.222 533.819 607.348L533.626 608.182L533.012 608.162C532.931 609.115 532.949 609.738 533.227 610.655C534.767 608.616 535.653 604.829 537.641 603.46L538.426 603.63C538.763 604.981 537.749 606.607 537.211 607.908C538.126 610.656 536.181 613.334 535.694 616.144L535.205 615.995L536.204 615.683L536.417 615.015C537.943 610.371 539.735 604.974 542.043 600.683C541.085 606.346 540.564 613.217 538.401 618.524C537.916 619.521 537.336 620.501 537.096 621.586C535.602 623.757 534.058 625.674 532.119 627.466C530.112 630.203 527.624 632.52 525.223 634.904C520.496 635.993 512.183 634.879 507.064 634.417C502.775 628.855 497.141 624.916 494.85 618.084C493.73 614.231 493.61 607.75 492.426 604.753C491.596 602.651 485.104 597.995 483.256 594.924C479.265 588.297 484.773 589.031 485.966 584.474L487.062 584.058C486.188 579.831 489.219 576.877 489.591 572.914C489.718 571.564 489.585 572.374 489.843 571.004L489.981 570.304Z"/>
	<path transform="scale(3.44095 3.44095)" d="M516.69 591.264C517.023 591.529 517.234 591.661 517.472 592.066C520.229 596.748 521.498 602.836 520.891 608.144L519.977 607.545C519.733 606.808 519.61 606.549 518.994 606.027C518.833 605.891 518.659 605.771 518.492 605.643C516.212 605.975 515.328 606.175 513.751 607.856C510.675 602.624 515.475 597.253 516.566 591.918C516.611 591.7 516.649 591.482 516.69 591.264Z"/>
	<path fill="#EFE4E5" transform="scale(3.44095 3.44095)" d="M542.043 600.683C541.085 606.346 540.564 613.217 538.401 618.524C537.916 619.521 537.336 620.501 537.096 621.586C535.602 623.757 534.058 625.674 532.119 627.466C532.495 624.689 534.629 623.031 534.336 620.023C533.765 619.395 533.242 618.896 532.937 618.085C532.881 617.936 532.848 617.78 532.804 617.628L531.647 617.152C530.285 618.183 528.625 619.913 527.056 620.552C526.107 620.938 526.033 620.846 525.071 620.419C524.515 619.441 524.361 618.783 524.299 617.684C524.262 617.026 524.244 616.388 524.142 615.736C523.984 614.72 523.872 613.849 523.912 612.817C526.089 611.747 528.387 611.352 530.783 611.725C531.953 612.685 531.77 613.125 531.987 614.581L532.569 614.835C534.61 613.01 535.705 610.195 537.211 607.908C538.126 610.656 536.181 613.334 535.694 616.144L535.205 615.995L536.204 615.683L536.417 615.015C537.943 610.371 539.735 604.974 542.043 600.683Z"/>
	<path fill="#EFE4E5" transform="scale(3.44095 3.44095)" d="M499.685 601.774C501.248 602.453 501.939 602.733 502.659 604.266C502.309 605.758 502.117 606.819 502.372 608.37C502.92 608.54 503.46 608.694 504.019 608.826L504.543 608.945C505.643 610.67 507.337 613.017 507.289 615.096C507.282 615.411 507.25 615.724 507.231 616.037L507.726 616.226L509.218 614.493C510.487 614.556 511.348 613.873 512.421 614.081C513.35 616.349 513.253 619.414 513.456 621.858L512.654 622.033C512.49 621.992 512.33 621.922 512.161 621.909C511.091 621.829 510.468 621.934 509.391 621.587C504.553 620.029 501.883 618.953 499.679 614.293C498.278 611.333 496.247 605.666 497.354 602.441L499.685 601.774Z"/>
	<path transform="scale(3.44095 3.44095)" d="M487.062 584.058C486.188 579.831 489.219 576.877 489.591 572.914C489.718 571.564 489.585 572.374 489.843 571.004L489.981 570.304C493.548 578.149 499.282 584.819 507.639 587.728C509.825 588.489 512.102 588.932 514.377 589.338Q513.623 580.252 511.475 571.391C513.062 575.415 516.999 585.319 515.49 589.492C515.068 590.657 514.69 591.305 513.437 591.628C512.891 591.769 511.8 591.611 511.282 591.577C510.76 592.402 510.889 591.984 510.794 592.796L509.698 592.391L510.241 592.698L509.672 591.743C503.768 593.94 499.875 597.669 493.333 594.684C491.654 593.919 490.046 592.803 489.456 590.953C487.828 585.852 490.193 579.892 489.648 574.608C489.257 575.9 487.494 583.772 487.062 584.058Z"/>
	<path fill="#FDFCFD" transform="scale(3.44095 3.44095)" d="M168.53 426.385L171.828 425.908C169.725 431.721 161.422 451.319 163.863 456.889C164.377 458.061 165.099 458.881 166.305 459.364C170.7 461.122 180.946 456.934 183.385 461.272C185.362 464.788 182.48 472.08 181.275 475.611C180.265 478.57 179.179 481.521 176.904 483.75C175.855 484.119 175.705 484.259 174.654 483.726C171.625 482.194 169.049 479.002 166.306 476.956C158.263 470.953 145.248 469.2 135.59 471.728C133.452 472.287 130.993 473.3 129.959 475.411C128.365 478.665 130.934 483.829 132.353 486.834C134.76 491.932 137.729 496.782 140.338 501.784C143.357 507.571 151.479 510.894 148.929 518.645C147.954 521.608 145.398 524.749 142.497 525.993C139.531 527.266 136.331 526.809 133.432 525.555C129.231 523.737 126.717 520.015 125.21 515.825C123.719 511.678 123.293 507.228 121.793 503.09C120.195 498.683 117.814 494.551 116.331 490.112C112.83 479.632 115.023 466.395 119.834 456.672C126.327 443.55 136.114 442.221 145.208 432.845L144.683 432.765C146.329 431.964 147.142 431.435 148.171 429.905C150.355 429.001 152.468 428.079 154.551 426.951C158.509 425.748 164.357 426.412 168.53 426.385Z"/>
	<defs>
		<linearGradient id="gradient_11" gradientUnits="userSpaceOnUse" x1="372.92725" y1="592.91956" x2="373.07269" y2="611.57263">
			<stop offset="0" stop-color="#9B0614"/>
			<stop offset="1" stop-color="#D01B29"/>
		</linearGradient>
	</defs>
	<path fill="url(#gradient_11)" transform="scale(3.44095 3.44095)" d="M298.004 592.701C306.813 592.127 315.88 592.497 324.709 592.606C343.208 592.835 361.71 593.487 380.209 593.557C407.858 593.66 435.573 591.438 463.231 592.737C458.393 599.255 453.36 605.692 447.857 611.665C445.625 612.859 302.202 612.551 283.527 612.332C287.909 605.573 293.192 599.182 298.004 592.701Z"/>
	<path fill="#BF1C29" transform="scale(3.44095 3.44095)" d="M572.924 565.061C576.993 565.057 581.013 565.083 585.068 565.432C609.432 564.296 634.207 565.376 658.61 565.412C683.647 565.448 708.907 564.475 733.916 565.443C735.173 565.491 735.651 565.465 736.783 566.079L735.953 567.115C730.813 573.224 726.002 579.621 720.614 585.516Q690.551 585.743 660.488 585.502C653.952 585.434 647.436 584.636 640.906 584.679C632.356 584.736 623.799 585.261 615.249 585.449Q586.923 586.076 558.596 585.512C563.529 578.815 568.223 571.923 572.924 565.061Z"/>
	<path fill="#960B16" transform="scale(3.44095 3.44095)" d="M573.428 568.149C574.809 567.633 576.125 567.54 577.586 567.523C595.748 567.315 614.026 568.038 632.209 568.073L732.449 567.486C732.388 569.588 730.333 571.167 728.904 572.662C721.853 573.87 714.612 573.057 707.489 573.32C688.928 574.006 670.384 573.964 651.812 573.987C642.87 573.998 633.929 574.501 624.992 574.154C613.326 573.7 601.722 573.477 590.044 573.426C583.278 573.397 576.242 573.045 569.545 574.101C570.693 572.308 571.842 570.546 573.095 568.823C573.409 568.39 573.322 568.586 573.428 568.149Z"/>
	<path fill="#BF1C29" transform="scale(3.44095 3.44095)" d="M314.958 565.62C327.243 564.699 340.033 565.354 352.379 565.357L421.883 565.442L461.725 565.33C467.456 565.36 474.016 564.806 479.6 566L480.058 566.736L479.329 568.65C475.49 574.436 471.582 580.326 466.796 585.381C446.578 585.711 426.219 585.874 406.001 585.575C396.924 585.441 387.859 584.783 378.783 584.776C369.132 584.769 359.515 585.298 349.871 585.474Q324.803 585.727 299.734 585.591C302.556 581.733 305.933 575.875 309.471 572.862C311.178 570.304 312.95 567.949 314.958 565.62Z"/>
	<path fill="#960B16" transform="scale(3.44095 3.44095)" d="M317.207 567.711C328.602 567.217 340.312 567.958 351.748 567.907C372.65 567.815 393.575 567.266 414.469 568.02L451.039 567.876C458.733 567.813 466.7 567.357 474.355 567.971C475.729 567.905 476.944 567.913 478.31 568.078L474.606 573.005C455.545 574.131 436.221 573.84 417.134 573.753L374.655 573.915C356.985 574.65 339.199 573.661 321.528 574.427C318.032 574.578 314.678 575.302 311.213 575.532L310.547 574.341Q312.088 572.561 313.651 570.801C314.738 569.701 316.027 568.717 317.207 567.711Z"/>
	<path fill="#FDFCFD" transform="scale(3.44095 3.44095)" d="M289.817 429.547Q307.493 429.516 325.169 429.676C318.112 449.092 312.027 468.872 305.502 488.472C300.319 504.039 294.624 519.421 289.844 535.121C299.855 535.618 309.99 535.393 320.018 535.481C317.17 543.238 314.835 551.295 312.178 559.135C290.394 558.284 268.297 558.961 246.485 558.998C252.216 544.925 256.541 529.93 261.324 515.501L289.817 429.547Z"/>
	<path transform="scale(3.44095 3.44095)" d="M291.87 432.957C301.357 432.95 310.951 432.718 320.411 433.437C316.687 443.209 313.674 453.318 310.341 463.233C301.888 488.384 293.751 513.693 284.559 538.584Q299.966 538.481 315.372 538.619L310.055 555.38C303.73 556.303 296.472 555.652 290.056 555.63L251.719 555.475C254.748 544.528 258.735 533.672 262.318 522.883L281.666 464.542C285.092 454.156 289.457 443.584 291.87 432.957Z"/>
	<path fill="#FDFCFD" transform="scale(3.44095 3.44095)" d="M802.949 429.696C825.162 429.266 847.43 429.534 869.649 429.517C864.8 437.732 859.02 445.389 854.09 453.572C845.865 453.329 837.593 453.511 829.364 453.518Q824.89 466.671 820.555 479.871Q832.31 479.752 844.064 479.946C841.229 487.407 838.33 494.935 836.173 502.622L812.906 502.507Q807.044 518.618 801.899 534.972L806.965 535.024L831.38 535.017L822.302 559.071C801.467 558.667 780.309 560.008 759.543 558.658C774.725 515.931 788.001 472.518 802.949 429.696Z"/>
	<path fill="#E33A40" transform="scale(3.44095 3.44095)" d="M804.976 432.956L863.741 433.093C859.24 438.418 856.099 444.628 851.72 449.999C843.498 450.009 835.293 450.443 827.071 450.086C823.599 461.133 819.512 471.984 816.166 483.067C823.852 483.672 831.822 483.488 839.525 483.177C837.329 488.545 835.464 493.974 833.644 499.478C826.006 498.699 818.099 498.939 810.416 498.815C806.753 511.327 802.091 523.78 797.642 536.04C797.456 536.803 797.375 537.458 797.308 538.236C801.781 539.188 820.708 538.337 826.704 538.326C824.392 543.984 822.352 549.78 820.213 555.507L764.059 555.447C770.785 539.439 775.323 522.025 780.808 505.5C788.82 481.358 797.627 457.296 804.976 432.956Z"/>
	<path fill="#FDFCFD" transform="scale(3.44095 3.44095)" d="M358.8 429.506L425.801 429.577C420.424 437.157 414.531 445.402 410.571 453.808C402.522 453.304 394.373 453.49 386.307 453.441Q381.886 466.588 377.723 479.818C385.142 480.099 392.577 480.2 399.999 480.387Q396.55 491.734 392.3 502.806C384.756 502.121 376.957 502.469 369.377 502.461C365.616 510.918 360.892 526.169 358.536 535.276L366.499 535.432L389.316 535.499C386.374 543.326 383.75 551.277 380.654 559.045L315.526 558.911C319.254 545.7 324.439 532.69 328.786 519.656L358.8 429.506Z"/>
	<path transform="scale(3.44095 3.44095)" d="M361.262 433.009C379.975 433.212 400.696 431.943 419.09 433.47C415.878 439.116 411.858 444.424 408.514 450.042L384.158 449.552L373.032 483.456Q384.211 483.382 395.384 483.766L390.271 499.029L366.802 498.912C363.496 511.662 357.843 526.022 353.576 538.7L384.335 538.634Q381.392 547.176 378.223 555.637C358.886 554.959 339.352 555.586 319.989 555.373C325.995 539.751 330.998 523.663 336.293 507.785L361.262 433.009Z"/>
	<path fill="#FDFCFD" transform="scale(3.44095 3.44095)" d="M643.021 429.557Q660.93 429.428 678.836 429.78C675.538 441.452 670.728 453.026 666.9 464.596Q651.258 512.011 634.922 559.191L625.837 559.007L599.681 558.987C606.566 540.311 612.23 521.22 619.189 502.576L610.977 502.44L591.376 559.049L555.451 558.948C560.193 547.666 563.959 535.912 567.99 524.362Q578.777 493.664 589.008 462.776C592.708 451.758 596.035 440.382 600.439 429.643C612.159 429.427 624.097 429.354 635.804 429.939C632.962 436.758 630.883 443.946 628.527 450.947C625.267 460.632 621.824 470.29 618.888 480.078L626.022 480.213C632.24 463.575 637.464 446.435 643.021 429.557Z"/>
	<path transform="scale(3.44095 3.44095)" d="M645.43 433.083Q659.887 432.946 674.335 433.451C670.044 444.26 666.659 455.418 662.877 466.411C652.667 496.086 643.112 525.992 632.735 555.609L623.73 555.53L605.039 555.491C606.672 548.487 609.502 541.475 611.8 534.657L623.708 498.863C618.751 498.664 613.755 498.747 608.793 498.709C602.209 517.582 595.195 536.46 589.15 555.5C579.596 555.558 570.034 555.416 560.48 555.365C565.37 543.8 568.863 531.514 573.025 519.663Q588.189 476.555 602.561 433.177C611.991 433.703 621.621 433.202 631.081 433.391Q622.381 458.392 614.006 483.503Q621.294 483.519 628.574 483.844C634.183 466.975 640.336 450.101 645.43 433.083Z"/>
	<path fill="#FDFCFD" transform="scale(3.44095 3.44095)" d="M56.1473 412.707C58.9193 416.005 61.4674 419.044 64.9549 421.625C82.7917 434.826 113.477 434.898 134.492 431.883C132.372 432.932 130.199 434.057 128.229 435.367C117.163 442.726 110.523 455.064 107.895 467.843C106.194 476.111 105.605 486.266 108.81 494.26C110.284 497.937 112.278 501.563 113.351 505.372C115.483 512.941 115.569 520.175 120.201 526.947C123.657 532.001 129.307 535.614 135.379 536.51C140.834 537.314 146.728 535.908 151.075 532.473C158.767 526.394 159.256 516.262 160.438 507.32C148.16 500.606 145.608 491.57 139.055 480.186C144.747 478.868 150.226 478.465 155.794 480.667C165.497 484.505 170.882 494.332 174.759 503.403C171.547 515.969 167.029 528.18 162.842 540.448C156.658 540.529 150.532 540.743 144.364 541.196C142.303 546.107 137.317 559.826 136.808 564.491L138.003 565.02C138.35 566.548 138.08 568.132 138.074 569.69C138.055 575.592 140.322 582.026 144.623 586.151C150.862 592.135 158.668 592.177 166.699 591.997C166.379 597.994 162.991 604.956 160.618 610.413C159.965 610.834 159.562 611.035 158.804 611.287C153.38 610.585 148.272 609.358 143.412 606.781L143.181 606.205L142.744 606.437L141.29 605.391C122.902 611.865 100.974 617.164 81.4517 616.612C68.9002 616.257 55.3908 612.384 46.6133 602.916C36.8095 592.34 37.1902 578.61 37.7499 565.143C39.4021 571.167 41.2087 576.649 45.149 581.599C49.9769 587.664 56.9398 591.943 64.7329 592.711C75.366 593.758 87.7789 590.292 95.8129 583.149C98.9687 580.344 101.492 576.882 104.752 574.217C104.865 574.124 104.981 574.035 105.095 573.944C102.018 570.918 99.5443 567.765 98.1637 563.614C94.0208 564.883 90.0747 565.813 85.7246 565.927C76.1828 566.179 67.0128 562.873 60.1529 556.181Q59.461 555.504 58.8039 554.793Q58.1469 554.082 57.5262 553.339Q56.9056 552.596 56.323 551.823Q55.7403 551.05 55.1972 550.249Q54.654 549.447 54.1517 548.62Q53.6494 547.792 53.1891 546.94Q52.7289 546.089 52.3119 545.215Q51.8949 544.341 51.5222 543.448Q51.1495 542.555 50.8221 541.643Q50.4946 540.732 50.2132 539.806Q49.9318 538.88 49.6972 537.941Q49.4625 537.001 49.2752 536.052Q49.088 535.102 48.9485 534.144Q48.809 533.186 48.7177 532.222Q48.6265 531.258 48.5836 530.291Q48.5407 529.324 48.5463 528.356C48.5096 515.767 53.9777 495.917 63.1079 486.85C60.9249 493.06 59.2378 499.153 58.9054 505.761C58.3907 515.991 60.4538 526.613 67.6068 534.349C73.2796 540.483 83.1128 545.183 91.4947 545.36C95.1103 545.437 98.4578 544.389 101.081 541.828C103.835 539.14 104.965 535.565 105.137 531.799C105.875 515.678 95.4129 513.523 89.3237 501.703C86.5355 496.291 85.4843 490.007 85.5721 483.962C85.8163 467.155 94.7926 454.692 106.348 443.428C96.7126 441.728 86.6923 440.013 77.6867 436.073C66.2665 431.077 60.6215 424.158 56.1473 412.707Z"/>
	<path fill="#FDFCFD" transform="scale(3.44095 3.44095)" d="M964.784 413.906C965.154 416.927 962.648 420.676 960.966 423.106C950.954 437.569 931.821 440.222 915.806 443.115C924.563 452.706 932.978 462.762 935.571 475.866C937.599 486.119 936.478 498.264 929.584 506.591C926.799 509.954 923.053 512.644 920.687 516.33C917.449 521.373 915.874 529.605 917.395 535.35C918.288 538.724 920.276 541.673 923.377 543.368C928.547 546.193 935.098 544.689 940.391 542.932C948.423 540.265 955.029 535.524 958.826 527.731C965.621 513.785 963.013 499.021 958.165 484.996C961.941 490.391 965.402 496.033 967.99 502.104C973.471 514.963 975.542 530.841 970.134 544.066C966.556 552.813 959.94 559.513 951.191 563.117C942.798 566.574 932.756 566.995 924.336 563.432C922.219 567.436 920.395 570.776 916.758 573.646C923.62 581.937 930.643 588.07 941.218 591.027C950.199 593.538 960.216 593.932 968.495 589.037C977.816 583.526 981.674 574.591 984.19 564.549C984.646 570.163 984.997 575.9 984.486 581.518C983.574 591.537 979.093 600.422 971.253 606.792C958.468 617.178 941.621 617.517 926.006 615.86C911.151 613.973 894.604 611.074 880.8 605.211C880.692 605.263 880.576 605.3 880.477 605.366C880.019 605.672 879.599 606.032 879.133 606.326C867.812 613.458 851.359 613.903 838.745 610.79Q845.985 602.115 852.973 593.235C860.848 593.045 869.28 593.231 875.707 587.887C882.501 582.238 883.478 573.82 884.324 565.644C881.498 560.113 879.664 554.357 877.881 548.431C875.577 548.487 873.248 548.564 870.948 548.399C865.059 547.974 859.371 546.302 855.457 541.605C848.846 533.672 846.661 518.98 847.807 508.981C848.902 499.418 854.177 489.845 861.902 484.025C868.784 478.841 875.461 479.123 883.502 480.292C876.182 491.146 874.607 500.156 862.411 506.97Q862.367 509.097 862.562 511.215C863.245 518.7 864.137 527.247 870.419 532.275C874.789 535.773 881.036 537.365 886.558 536.55Q887.124 536.461 887.684 536.343Q888.245 536.226 888.799 536.08Q889.352 535.934 889.898 535.761Q890.444 535.587 890.98 535.386Q891.516 535.185 892.042 534.958Q892.567 534.73 893.08 534.476Q893.594 534.221 894.093 533.942Q894.593 533.662 895.078 533.357Q895.563 533.052 896.032 532.724Q896.501 532.395 896.952 532.043Q897.404 531.691 897.837 531.316Q898.27 530.941 898.684 530.545Q899.098 530.15 899.491 529.733Q899.884 529.317 900.256 528.881Q900.627 528.445 900.976 527.991Q901.325 527.537 901.651 527.066C906.256 520.319 906.704 512.54 908.665 504.882C909.612 501.184 911.657 498.003 913.072 494.494C916.368 486.318 915.903 475.067 914.177 466.59C910.845 450.234 902.71 441.079 889.262 432.078C898.573 433.804 907.461 434.291 916.911 433.545C935.492 432.078 952.344 428.505 964.784 413.906Z"/>
	<path fill="#FDFCFD" transform="scale(3.44095 3.44095)" d="M179.793 429.679L267.304 429.639Q274.255 435.989 280.908 442.65L266.622 485.135C262.704 486.847 259.225 489.094 255.643 491.4C257.841 493.747 260.129 496.017 262.379 498.314C259.876 506.131 256.98 513.876 254.332 521.651C251.371 530.347 248.629 539.249 244.983 547.683C239.198 551.862 232.544 555.306 226.402 558.973C199.109 559.853 171.555 559.044 144.233 558.951L147.946 546.474L166.994 546.257C176.538 514.21 189.614 483.106 198.672 450.913C190.204 450.396 181.654 450.592 173.171 450.602Q176.818 440.247 179.793 429.679Z"/>
	<path transform="scale(3.44095 3.44095)" d="M189.236 433.257C214.832 432.841 240.745 432.483 266.319 433.478C270.12 436.655 273.505 440.525 276.966 444.075C272.158 456.502 269.453 470.383 263.732 482.331Q260.521 484.609 257.044 486.456Q253.567 488.303 249.882 489.689C252.334 493.309 255.532 496.553 258.453 499.807C255.417 508.333 252.408 516.812 249.551 525.407C247.678 531.04 246.101 537.276 243.491 542.615C242.844 543.938 241.992 545.128 240.91 546.132C237.545 549.254 227.954 554.943 223.486 555.628C221.699 555.902 219.68 555.715 217.875 555.651C194.969 555.424 172.085 556.308 149.18 555.475C149.629 553.511 149.999 551.522 150.405 549.547Q159.814 549.449 169.22 549.685C176.121 532.513 182.047 512.29 187.955 494.587C193.158 479 199.458 463.245 203.361 447.306C194.973 446.812 186.472 447.041 178.062 446.853C179.568 442.354 180.984 437.822 182.439 433.306L189.236 433.257Z"/>
	<path fill="#FDFCFD" transform="scale(3.44095 3.44095)" d="M231.148 448.037L247.152 448.106C243.995 460.311 239.482 472.411 235.538 484.4C230.201 484.147 224.843 484.137 219.502 484.042C223.21 471.993 227.249 460.027 231.148 448.037Z"/>
	<path transform="scale(3.44095 3.44095)" d="M233.445 451.582L242.561 451.974L233.223 480.849C230.164 480.812 227.091 480.598 224.034 480.455C226.869 470.764 230.332 461.192 233.445 451.582Z"/>
	<path fill="#FDFCFD" transform="scale(3.44095 3.44095)" d="M215.144 496.246L231.517 496.353Q227.227 509.782 222.714 523.138C220.97 528.376 219.452 533.755 217.3 538.843C212.117 538.282 206.376 538.721 201.129 538.708C205.918 524.639 209.884 510.129 215.144 496.246Z"/>
	<path transform="scale(3.44095 3.44095)" d="M217.417 499.848C220.568 500.053 223.774 499.984 226.934 500.024Q220.942 517.67 215.156 535.385C211.988 535.466 208.814 535.309 205.648 535.209C209.648 523.483 212.99 511.408 217.417 499.848Z"/>
	<path fill="#FDFCFD" transform="scale(3.44095 3.44095)" d="M761.882 429.506Q779.422 429.407 796.959 429.774C787.715 454.649 779.915 480.078 771.344 505.192C768.206 514.387 765.761 524.413 761.497 533.154L762.948 534.718C763.816 537.002 756.451 555.538 755.156 559.083C734.227 558.982 713.222 559.252 692.304 558.554C693.43 555.964 694.51 553.345 695.774 550.819C690.715 553.307 686.049 556.151 681.233 559.05L640.529 558.959C655.189 515.914 668.783 472.511 683.799 429.584C701.68 429.575 719.773 430.167 737.627 429.563C742.908 433.382 748.162 437.967 752.847 442.496Q736.935 490.531 720.23 538.296L725.6 537.991C731.591 517.277 739.012 496.785 745.895 476.342C751.134 460.78 755.791 444.742 761.882 429.506Z"/>
	<path fill="#E33A40" transform="scale(3.44095 3.44095)" d="M720.23 538.296L725.6 537.991C736.865 538.341 748.165 538.2 759.436 538.228L752.956 555.801C734.324 555.301 715.319 556.537 696.76 555.215C701.994 544.705 711.593 544.649 720.23 538.296Z"/>
	<path fill="#E33A40" transform="scale(3.44095 3.44095)" d="M763.913 432.955C773.393 433.102 782.89 432.989 792.373 432.988C787.05 446.593 782.793 460.826 778.096 474.671Q770.592 496.622 763.381 518.671C762.303 521.9 760.867 525.033 759.832 528.259C759.481 529.354 759.197 530.491 759.491 531.632C759.689 532.398 760.838 532.779 761.497 533.154L762.948 534.718C752.494 533.725 740.36 534.649 729.714 534.451C735.145 520.504 739.442 505.915 744.116 491.688L763.913 432.955Z"/>
	<defs>
		<linearGradient id="gradient_12" gradientUnits="userSpaceOnUse" x1="704.87372" y1="550.54785" x2="687.05847" y2="433.9147">
			<stop offset="0" stop-color="#DE5A3A"/>
			<stop offset="1" stop-color="#EC0A48"/>
		</linearGradient>
	</defs>
	<path fill="url(#gradient_12)" transform="scale(3.44095 3.44095)" d="M685.848 433.014L737.065 432.999C740.929 436.598 744.743 440.239 748.904 443.498C746.394 453.611 740.676 467.671 737.208 477.926C730.635 497.367 724.571 516.946 717.568 536.243Q708.676 541.018 699.617 545.468C693.422 548.328 687.468 552.563 681.12 554.894C676.273 556.673 651.896 555.617 645.279 555.609C649.138 544.928 652.292 533.939 655.858 523.15C665.791 493.093 675.504 462.931 685.848 433.014Z"/>
	<path fill="#FDFCFD" transform="scale(3.44095 3.44095)" d="M708.517 449.703L718.821 449.414C712.415 471.107 704.772 492.457 697.293 513.795C695.27 519.566 694.289 526.053 691.888 531.603L681.227 531.504C684.718 522.857 687.234 513.79 690.173 504.94L708.517 449.703Z"/>
	<path transform="scale(3.44095 3.44095)" d="M710.859 452.953C711.727 453.022 712.592 453.112 713.458 453.201L713.819 453.823C711.629 463.607 707.755 473.522 704.489 483.001Q696.583 505.51 689.167 528.184C688.123 528.147 687.288 528.01 686.285 527.719C688.224 520.144 691.199 512.657 693.611 505.206L710.859 452.953Z"/>
	<path fill="#FDFCFD" transform="scale(3.44095 3.44095)" d="M449.522 429.494C463.989 429.442 478.713 428.969 493.144 429.857C490.493 442.221 489.341 455.17 487.656 467.704Q483.037 503.411 477.556 538.996C481.672 530.401 484.393 520.624 487.5 511.616C495.482 488.479 502.505 464.841 511.297 442.004C518.331 438.504 525.129 433.416 532.349 430.57C538.513 428.141 568.469 429.699 577.758 429.535C582.341 433.329 586.584 437.782 590.879 441.909C586.405 454.07 582.395 466.43 578.237 478.704C565.371 480.206 552.558 482.845 539.747 484.807C543.461 474.249 547.378 463.728 550.534 452.988L542.178 453.083C534.202 476.458 525.86 499.754 518.077 523.185C516.526 527.073 515.405 531.271 514.099 535.257C516.936 535.53 519.83 535.467 522.68 535.513C526.231 525.98 529.234 516.123 532.479 506.476C544.477 506.678 556.455 507.069 568.457 506.873C564.077 520.798 557.414 534.944 554.129 549.072C547.799 551.921 541.941 555.572 536.018 559.168C519.527 558.97 503.027 559.313 486.539 558.926C483.17 556.231 479.91 553.705 476.186 551.504L475.27 559.224Q458.307 558.888 441.342 559.012Q443.764 539.232 446.679 519.518L437.501 519.352C431.476 532.818 424.091 545.993 417.413 559.169C405.906 558.707 394.263 558.979 382.74 558.917C384.988 553.761 388.02 548.868 390.676 543.906Q396.302 533.16 401.751 522.324C417.657 491.397 433.978 460.595 449.522 429.494Z"/>
	<path transform="scale(3.44095 3.44095)" d="M534.692 433.019C547.888 433.015 563.621 432.056 576.543 433.372C580.289 436.056 583.561 439.923 586.93 443.104C583.034 453.726 579.707 464.538 575.928 475.201C565.772 477.736 555.091 479.097 544.765 480.907C548.397 470.639 552.644 460.202 555.127 449.605C550.05 449.311 544.896 449.47 539.809 449.455C536.818 461.126 531.871 472.616 527.956 484.023C521.683 502.298 515.961 520.963 508.972 538.964Q517.102 538.884 525.228 538.598C526.855 533.438 528.793 528.35 530.604 523.25Q532.687 516.656 534.97 510.129Q549.433 510.02 563.889 510.492C559.351 522.353 555.473 534.478 551.154 546.424C545.848 549.896 539.821 552.7 534.338 555.976C518.926 555.344 503.403 555.709 487.983 555.844C484.798 553.066 481.588 550.494 478.127 548.068C481.606 539.879 484.239 531.059 487.182 522.644Q496.194 497.263 504.645 471.691C507.646 462.719 510.367 453.49 514.019 444.761L534.692 433.019Z"/>
	<path transform="scale(3.44095 3.44095)" d="M451.543 432.957Q470.389 432.925 489.233 433.189C486.279 449.988 484.308 467.05 482.004 483.952L471.897 555.929C463.074 555.348 454.168 555.5 445.327 555.439C446.852 542.295 449.063 529.186 450.16 515.999C446.263 515.961 439.898 514.562 436.367 515.866C434.702 516.481 434.397 517.87 433.653 519.335C427.62 531.378 421.955 543.813 415.283 555.504C406.347 555.545 397.177 555.077 388.288 555.894C401.665 531.842 413.593 506.71 426.05 482.159C434.385 465.732 443.688 449.594 451.543 432.957Z"/>
	<path fill="#FDFCFD" transform="scale(3.44095 3.44095)" d="M459.248 463.361C459.913 466.715 454.336 495.844 453.315 501.371C449.722 501.166 446.104 501.134 442.506 501.027L441.92 500.257C447.742 487.953 452.849 475.409 459.248 463.361Z"/>
	<path transform="scale(3.44095 3.44095)" d="M451.909 486.503L452.218 487.036C451.934 489.99 451.816 494.352 450.304 496.962C449.881 497.692 448.677 497.687 447.884 497.859L447.365 496.905C448.297 493.392 450.368 489.814 451.909 486.503Z"/>
</svg>
