<?xml version="1.0" encoding="utf-8" ?><svg xmlns="http://www.w3.org/2000/svg" xmlns:xlink="http://www.w3.org/1999/xlink" width="1024" height="1024" viewBox="0 0 1024 1024"><defs><linearGradient id="gradient_0" gradientUnits="userSpaceOnUse" x1="502.33688" y1="804.32629" x2="775.23291" y2="251.15451"><stop offset="0" stop-color="#3C3070"/><stop offset="1" stop-color="#5E6896"/></linearGradient></defs><path fill="url(#gradient_0)" d="M643.31 658.015L643.605 348.412L643.516 257.867L643.475 230.463C643.468 225.253 643.235 219.616 643.723 214.465C644.718 203.951 653.634 196.619 663.993 197.019C668.825 197.162 673.387 199.283 676.611 202.886C682.331 209.161 688.932 232.402 693.012 241.818C705.775 271.276 726.672 292.025 745.129 317.335C771.655 353.71 781.724 402.237 780.375 446.605C779.797 466.816 779.838 487.976 780.239 508.202C780.369 514.726 780.904 527.572 781.848 533.868C776.978 533.23 745.161 530.179 742.856 530.886C735.783 471.622 757.779 390.24 704.117 347.816C700.405 344.883 689.223 336.985 684.78 336.514L683.867 337.036C683.168 344.008 683.512 356.111 683.505 363.531C683.536 380.417 683.481 397.304 683.337 414.19C682.677 491.406 682.498 568.626 682.801 645.845L682.754 699.828C682.337 742.068 681.445 770.244 645.573 801.026C591.103 847.766 474.975 830.716 482.692 742.714C484.78 718.9 500.041 695.388 518.969 680.307C546.794 658.391 582.191 648.439 617.359 652.644C626.926 653.762 634.138 655.593 643.31 658.015Z"/><defs><linearGradient id="gradient_1" gradientUnits="userSpaceOnUse" x1="179.21117" y1="616.66797" x2="413.28909" y2="382.83179"><stop offset="0" stop-color="#3D3271"/><stop offset="1" stop-color="#5E6897"/></linearGradient></defs><path fill="url(#gradient_1)" d="M248.542 630.477C254.615 618.495 260.031 590.64 262.757 576.635C267.555 551.07 271.837 525.409 275.599 499.67C281.586 460.688 292.588 372.851 314.545 343.075C320.7 334.816 329.91 329.369 340.112 327.953C376.271 322.852 387.334 366.208 393.96 393.016C395.862 400.712 397.99 409.381 399.058 417.221C397.595 418.886 397.249 419.956 397.193 422.233C396.939 432.374 397.034 444.324 396.848 454.273C396.555 469.959 389.811 524.383 379.262 534.477C376.818 523.771 375.034 508.979 373.133 497.802C366.697 459.645 361.789 420.793 350.694 383.633C349.701 380.309 347.481 370.599 344.032 370.232C331.831 377.335 314.584 499.933 311.619 518.714C309.022 534.718 306.326 550.706 303.532 566.676C298.989 592.043 294.227 619.118 285.356 643.35C281.877 653.191 272.301 667.103 261.607 670.303C202.416 688.015 202.469 599.063 196.098 562.643C194.09 551.165 192.496 542.192 188.416 531.819C201.859 537.981 215.444 542.289 230.57 539.138C237.206 563.742 237.902 609.357 248.542 630.477Z"/><path fill="#575E8F" d="M457.215 535.625C462.766 501.635 473.733 394.689 503.711 378.162C581.912 335.049 588.692 469.986 591.959 516.248C593.11 532.55 596.558 558.756 568.419 554.898C549.721 552.334 554.678 523.165 553.039 510.219C551.242 489.004 545.966 420.541 529.948 407.808C513.783 403.992 500.34 509.997 498.22 523.15C496.706 532.542 494.592 541.745 492.885 551.058C491.629 550.282 484.186 548.341 482.05 547.714C477.034 546.242 459.795 539.914 457.215 535.625Z"/><path fill="#413977" d="M399.058 417.221C402.328 433.784 405.17 450.429 407.581 467.139C410.904 488.773 420.93 574.886 435.261 584.859C436.176 585.496 437.232 585.813 438.346 585.613C441.345 585.075 443.608 581.651 444.925 579.19C450.284 569.172 452.76 556.859 455.098 545.779C455.792 542.491 456.216 538.813 457.215 535.625C459.795 539.914 477.034 546.242 482.05 547.714C484.186 548.341 491.629 550.282 492.885 551.058C486.604 579.021 477.815 618.714 444.185 624.273C396.219 632.202 384.394 569.347 379.262 534.477C389.811 524.383 396.555 469.959 396.848 454.273C397.034 444.324 396.939 432.374 397.193 422.233C397.249 419.956 397.595 418.886 399.058 417.221Z"/><path fill="#413977" d="M742.856 530.886C745.161 530.179 776.978 533.23 781.848 533.868C782.385 540.839 785.601 557.574 791.147 561.585C803.854 570.775 808.693 543.574 809.674 538.621L810.519 539.523C823.935 541.871 837.759 536.966 850.328 533.454C848.55 538.458 847.278 545.099 845.993 550.362C842.997 562.633 838.532 574.816 830.508 584.742C822.924 594.128 811.828 600 799.802 600.993C788.865 601.984 774.724 598.337 766.285 591.07C748.743 575.965 744.776 552.592 742.856 530.886Z"/><path fill="#575E8F" d="M188.416 531.819C185.165 524.879 182.003 521.543 175.208 518.753C161.686 513.203 131.613 523.92 124.413 507.278C115.93 487.669 135.154 478.01 151.995 479.883C159.825 480.754 168.922 479.068 176.94 480.641C210.255 484.229 223.77 509.76 230.57 539.138C215.444 542.289 201.859 537.981 188.416 531.819Z"/><path fill="#575E8F" d="M809.674 538.621C813.276 518.035 822.055 497.419 841.699 487.896C859.37 479.329 914.808 473.591 902.306 509.212C897.205 523.746 872.271 516.719 861.769 521.16C855.614 523.75 853.046 527.152 850.328 533.454C837.759 536.966 823.935 541.871 810.519 539.523L809.674 538.621Z"/></svg>