<svg xmlns="http://www.w3.org/2000/svg" version="1.1" xmlns:xlink="http://www.w3.org/1999/xlink" width="1000" height="1000"><g clip-path="url(#SvgjsClipPath1090)"><rect width="1000" height="1000" fill="#ffffff"></rect><g transform="matrix(0.7621951219512195,0,0,0.7621951219512195,0,219.5121951219512)"><svg xmlns="http://www.w3.org/2000/svg" version="1.1" xmlns:xlink="http://www.w3.org/1999/xlink" width="1312" height="736"><svg xmlns="http://www.w3.org/2000/svg" xmlns:xlink="http://www.w3.org/1999/xlink" width="1312" height="736" viewBox="0 0 1312 736"><path d="M557.371 172.033C567.391 175.446 574.718 184.062 581.417 191.835C584.998 186.318 591.614 178.04 597.945 176.205C609.457 172.868 613.581 186.752 616.161 194.835C619.746 193.42 623.395 192.171 627.095 191.093C656.4 182.734 647.163 207.131 638.094 221.864C665.125 232.006 672.586 239.147 686.354 263.964C716.919 251.91 750.824 240.505 784.014 244.971C795.765 246.552 809.795 252.361 816.968 262.152C820.065 266.381 821.982 271.356 822.522 276.569C824.948 300.411 797.758 305.592 805.284 328.628C809.175 340.536 815.454 351.245 818.174 363.652C821.94 381.44 822.303 399.779 819.242 417.701C812.835 457.235 793.404 483.906 761.607 506.776C764.967 509.813 768.499 512.653 772.186 515.283C789.427 527.389 803.48 527.942 823.574 524.473C815.278 529.426 809.004 533.646 798.845 534.365C782.5 535.522 770.479 527.476 758.714 517.647L752.824 511.843C731.239 522.957 718.607 522.138 696.089 526.529C682.851 529.11 669.087 543.662 652.877 541.147C627.283 537.177 627.639 516.037 629.864 496.174C625.679 487.862 622.634 481.969 618.973 473.4C587.258 472.931 570.161 472.902 539.794 461.896C520.585 471.295 510.058 479.508 493.189 491.95C491.398 489.931 489.587 487.487 487.914 485.332C500.351 472.951 513.967 465.025 529.035 456.542C527.07 455.33 525.135 454.069 523.234 452.759C492.319 431.444 494.206 402.168 514.11 374.127C487.485 335.039 480.139 295.935 511.995 257.927C511.022 257.36 510.06 256.771 509.112 256.163C480.521 237.785 488.265 228.021 517.745 222.765C504.074 190.984 523.847 195.03 545.729 201.669C546.387 188.992 548.082 181.317 557.371 172.033ZM689.263 273.269C690.869 279.983 691.419 286.245 691.814 293.124C704.698 288.137 715.186 285.813 729.095 286.319C734.674 286.523 742.767 287.08 748.147 286.794L748.836 286.644C755.289 285.206 756.484 281.863 761.682 279.042C783.269 267.328 798.889 271.881 806.925 294.582C826.364 265.428 793.046 254.101 769.644 253.364C741.567 254.609 715.003 262.396 689.263 273.269ZM581.582 439.975C571.421 445.585 561.648 450.508 551.244 455.679C562.889 459.217 576.059 461.987 588.244 462.711C598.409 463.861 606.574 463.789 616.738 463.669L615.057 454.287C605.226 452.263 599.833 451.114 591.163 445.722C589.672 444.795 582.959 440.611 581.582 439.975ZM555.742 442.702C562.029 439.75 568.605 436.776 574.734 433.555C562.648 419.068 552.022 411.84 537.723 399.848C531.421 394.563 525.715 386.825 520.466 382.105C501.101 412.445 507.486 434.721 539.276 450.965L555.742 442.702Z"></path><path fill="#EDC73A" d="M690.763 303.034C702.625 298.122 717.919 294.47 730.845 295.458C736.526 295.892 745.5 297.787 750.861 296.301C765.765 292.168 768.673 279.871 786.257 283.099C808.165 292.025 792.966 309.712 794.598 325.813C795.48 334.516 802.319 344.876 805.117 353.254C816.032 383.502 813.807 416.76 800.945 446.258C785.937 480.68 753.951 508.656 715.928 513.756C708.591 514.741 701.418 514.781 694.286 517.112C682.744 520.327 672.91 527.826 661.28 530.586C649.566 533.367 642.14 528.728 638.245 517.791C637.733 508.039 638.289 503.91 639.742 494.096C636.281 486.931 631.712 479.703 629.067 472.253C674.534 467.779 718.279 452.524 756.668 427.756L756.624 427.115C729.866 437.513 702.832 448.499 674.91 455.198C658.58 459.116 643.345 460.767 626.842 463.36L625.382 453.871C669.348 445.69 671.633 401.455 674.64 365.246C675.208 358.41 678.043 348.959 679.916 342.184C682.446 333.185 686.274 322.814 689.376 313.851C690.181 309.727 690.43 307.167 690.763 303.034Z"></path><path fill="#D3833F" d="M786.257 283.099C808.165 292.025 792.966 309.712 794.598 325.813C795.48 334.516 802.319 344.876 805.117 353.254C816.032 383.502 813.807 416.76 800.945 446.258C785.937 480.68 753.951 508.656 715.928 513.756C708.591 514.741 701.418 514.781 694.286 517.112C682.744 520.327 672.91 527.826 661.28 530.586C649.566 533.367 642.14 528.728 638.245 517.791C637.733 508.039 638.289 503.91 639.742 494.096C636.281 486.931 631.712 479.703 629.067 472.253C674.534 467.779 718.279 452.524 756.668 427.756L756.624 427.115C767.523 422.248 774.609 382.428 775.773 370.838C776.611 361.95 776.811 353.013 776.372 344.097C775.929 334.457 771.055 323.815 773.131 314.506C774.571 308.052 784.82 306.961 787.748 300.198C790.114 294.733 788.218 288.386 786.257 283.099Z"></path><path fill="#EDC73A" d="M756.668 427.756L758.709 427.23C759.22 429.146 757.972 430.736 756.912 432.616C742.82 457.607 722.726 481.563 696.416 494.14C688.124 498.104 678.565 501.121 669.754 504.072C660.546 520.546 657.676 527.75 638.245 517.791C637.733 508.039 638.289 503.91 639.742 494.096C636.281 486.931 631.712 479.703 629.067 472.253C674.534 467.779 718.279 452.524 756.668 427.756Z"></path><path fill="#E5E4E3" d="M689.376 313.851C709.079 304.018 723.72 300.062 745.284 307.189L745.706 307.332C730.566 311.075 716.115 317.194 702.892 325.462C697.372 328.939 684.737 341.144 679.916 342.184C682.446 333.185 686.274 322.814 689.376 313.851Z"></path><path fill="#DC4A48" d="M618.439 229.234C644.226 229.645 667.435 244.24 677.614 268.22C666.179 273.225 654.939 278.667 643.921 284.533C621.952 296.28 583.988 320.608 566.285 338.442C571.878 335.357 576.987 331.727 582.292 328.187C602.068 314.99 623.106 302.003 644.814 292.283L645.057 316.039C636.786 321.537 629.654 326.454 621.718 332.53C629.15 329.366 636.465 325.806 643.796 322.402C655.332 317.647 669.866 312.006 681.005 306.508C676.232 323.494 670.021 340.262 666.393 357.409C661.55 380.436 665.425 399.398 654.446 421.14C638.545 452.63 603.766 449.796 582.541 426.827C570.772 414.091 561.324 407.165 548.335 396.485C535.017 385.456 523.869 372.045 515.458 356.937C506.595 341.69 501.962 329.955 501.144 312.268C500.431 296.862 505.941 278.583 517.065 267.64C541.213 243.883 585.58 230.265 618.439 229.234Z"></path><path fill="#B03437" d="M643.796 322.402C655.332 317.647 669.866 312.006 681.005 306.508C676.232 323.494 670.021 340.262 666.393 357.409C661.55 380.436 665.425 399.398 654.446 421.14C638.545 452.63 603.766 449.796 582.541 426.827C570.772 414.091 561.324 407.165 548.335 396.485C535.017 385.456 523.869 372.045 515.458 356.937C520.567 359.004 536.26 373.345 541.332 377.759C554.471 389.191 567.365 397.746 582.06 407.104C588.361 411.117 592.173 417.214 600.237 421.225C613.04 427.593 627.801 428.937 639.215 418.733C656.715 400.695 647.358 375.394 644.555 353.957C643.28 344.201 643.732 332.55 643.796 322.402Z"></path><path fill="#B03437" d="M618.439 229.234C644.226 229.645 667.435 244.24 677.614 268.22C666.179 273.225 654.939 278.667 643.921 284.533C642.519 261.131 635.828 244.788 618.439 229.234Z"></path><path fill="#E5E4E3" d="M566.902 253.24L567.022 253.284C566.738 254.534 563.484 256.313 562.23 257.156C532.518 277.14 526.963 300.824 530.848 334.679L526.513 327.442C523.824 322.482 521.759 317.21 520.366 311.743C517.465 300.006 518.042 287.235 524.519 276.713C533.663 261.859 551.006 257.074 566.902 253.24Z"></path><path fill="#3E5D48" d="M559.218 183.95C570.529 190.661 575.429 200.667 581.044 211.882C584.251 205.853 593.262 187.044 600.798 186.841C602.915 187.947 602.42 187.906 603.803 190.264C599.817 199.504 593.959 214.595 589.383 222.893C560.679 229.631 546.449 237.191 521.952 252.432C516.682 250.204 505.84 245.44 504.493 239.515C506.437 229.996 528.94 232.519 536.197 232.971C527.543 223.756 525.243 219.044 522.964 206.592C537.481 207.973 544.003 211.066 556.088 218.849C553.988 205.964 554.426 196.033 559.218 183.95Z"></path><path fill="#B03437" d="M644.814 292.283C656.877 286.35 667.94 281.696 680.378 276.57C681.641 283.281 681.797 289.882 682.12 296.688C668.577 303.13 657.916 308.394 645.057 316.039L644.814 292.283Z"></path><path fill="#354243" d="M603.803 190.264C607.221 197.483 609.253 202.847 610.209 210.902C615.682 206.422 630.192 194.658 636.502 202.049C638.043 208.124 630.229 216.289 626.155 220.356C612.476 220.339 603.082 220.342 589.383 222.893C593.959 214.595 599.817 199.504 603.803 190.264Z"></path><path d="M597.604 549.966C617.824 549.171 786.735 548.127 794.106 557.519C786.395 563.155 719.84 564.047 706.129 564.347C652.848 564.57 599.51 565.525 546.274 562.623C532.803 561.888 519.054 561.411 506.115 557.322C523.59 550.248 576.888 550.905 597.604 549.966Z"></path><path d="M607.714 482.961C608.805 482.891 608.982 483.04 610.051 483.31C612.529 485.596 614.374 489.173 616.119 492.128C599.353 495.164 582.113 499.666 564.55 502.848C562.641 503.27 559.806 504.105 558.032 503.766C574.53 496.683 591.091 489.748 607.714 482.961Z"></path><path d="M730.909 228.912L731.142 229.579C726.424 232.368 693.659 249.108 690.014 249.48L688.883 248.206L684.713 241.755C699.955 234.457 714.453 232.001 730.909 228.912Z"></path></svg></svg></g></g><defs><clipPath id="SvgjsClipPath1090"><rect width="1000" height="1000" x="0" y="0" rx="350" ry="350"></rect></clipPath></defs></svg>