<?xml version="1.0" encoding="utf-8" ?>
<svg xmlns="http://www.w3.org/2000/svg" xmlns:xlink="http://www.w3.org/1999/xlink" width="1024" height="1024">
	<path fill="#FEFEFE" d="M0 0L1024 0L1024 1024L0 1024L0 0Z"/>
	<defs>
		<linearGradient id="gradient_0" gradientUnits="userSpaceOnUse" x1="538.54657" y1="753.72559" x2="486.96603" y2="266.1673">
			<stop offset="0" stop-color="#46366C"/>
			<stop offset="1" stop-color="#733D90"/>
		</linearGradient>
	</defs>
	<path fill="url(#gradient_0)" d="M298.637 410.439L298.719 313.287C298.723 308.322 298.027 288.491 298.847 285.716C298.946 285.378 299.198 285.105 299.374 284.799L301.937 284.925L593.524 284.986L683.889 285.022C700.338 285.033 716.843 285.301 733.284 284.947C730.154 289.845 720.775 306.002 717.422 309.123L578.14 518.511C563.63 540.234 549.246 562.04 534.988 583.929C528.177 594.29 520.459 604.53 514.522 615.404C585.289 614.906 656.058 614.785 726.826 615.038C726.246 654.088 727.231 693.172 726.552 732.216C726.584 734.072 726.736 735.893 726.148 737.679C721.312 738.361 716.1 737.992 711.211 737.995L686.252 738.022L595.493 738.052L293.447 737.95C298.129 730.112 303.61 722.681 308.803 715.172C317.556 698.948 329.486 683.134 339.698 667.719L386.282 596.031L453.281 493.458C471.304 465.566 488.899 437.08 507.899 409.845C438.169 410.989 368.38 409.753 298.637 410.439Z"/>
	<path fill="#8C56AC" d="M301.937 284.925L593.524 284.986L683.889 285.022C700.338 285.033 716.843 285.301 733.284 284.947C730.154 289.845 720.775 306.002 717.422 309.123C700.684 309.873 683.781 309.443 667.02 309.456L578.667 309.471L324.819 309.467C321.411 306.204 302.585 288.491 301.937 284.925Z"/>
	<path fill="#362957" d="M308.803 715.172C319.488 716.411 331.185 715.475 341.993 715.453L409.422 715.197L613.452 714.816L669.449 714.559C676.717 714.549 688.008 713.608 694.862 715.086C703.101 716.862 717.759 732.624 724.762 734.707C725.669 733.949 726.034 733.268 726.552 732.216C726.584 734.072 726.736 735.893 726.148 737.679C721.312 738.361 716.1 737.992 711.211 737.995L686.252 738.022L595.493 738.052L293.447 737.95C298.129 730.112 303.61 722.681 308.803 715.172Z"/>
	<path fill="#FEFEFE" d="M343.048 332.44L648.083 332.035C629.658 361.621 609.828 390.462 590.732 419.625L503.248 553.188L467.028 608.278C455.167 625.974 442.601 643.714 431.843 662.101L680.3 662.025L680.135 690.059L465.059 690.017C435.749 689.995 406.361 690.544 377.062 690.11C418.739 625.38 460.854 560.933 503.404 496.774C521.729 469.333 539.895 441.787 557.902 414.136C564.466 403.892 572.01 393.77 577.869 383.145C575.687 384.297 574.137 384.655 571.683 384.792C559.967 385.443 548.007 385.041 536.271 384.965C516.515 384.768 496.758 384.692 477 384.735C442.812 385.075 408.621 385.019 374.434 384.567C358.935 384.431 343.286 384.869 327.814 384.076C331.988 377.297 337.424 371.353 341.609 364.517L353.055 364.225L353.187 363.501L342.981 363.506L343.048 332.44Z"/>
	<path fill="#8C56AC" d="M442.424 363.399C459.001 362.443 475.953 363.241 492.563 363.253L591.103 363.022C587.969 367.696 580.859 380.103 577.869 383.145C575.687 384.297 574.137 384.655 571.683 384.792C559.967 385.443 548.007 385.041 536.271 384.965C516.515 384.768 496.758 384.692 477 384.735C442.812 385.075 408.621 385.019 374.434 384.567C358.935 384.431 343.286 384.869 327.814 384.076C331.988 377.297 337.424 371.353 341.609 364.517L353.055 364.225L353.187 363.501L413.119 363.329C422.751 363.321 432.847 362.671 442.424 363.399Z"/>
	<path fill="#6A3B8F" d="M353.187 363.501L413.119 363.329C422.751 363.321 432.847 362.671 442.424 363.399L443.028 363.456C450.731 364.119 458.687 363.696 466.433 363.811C457.534 364.841 448.174 364.266 439.203 364.441C410.512 365.002 381.754 364.215 353.055 364.225L353.187 363.501Z"/>
</svg>
